<?xml version="1.0" encoding="UTF-8" standalone="no"?>
<!-- Created with Inkscape (http://www.inkscape.org/) -->

<svg
   xmlns:dc="http://purl.org/dc/elements/1.1/"
   xmlns:cc="http://creativecommons.org/ns#"
   xmlns:rdf="http://www.w3.org/1999/02/22-rdf-syntax-ns#"
   xmlns:svg="http://www.w3.org/2000/svg"
   xmlns="http://www.w3.org/2000/svg"
   xmlns:sodipodi="http://sodipodi.sourceforge.net/DTD/sodipodi-0.dtd"
   xmlns:inkscape="http://www.inkscape.org/namespaces/inkscape"
   width="210mm"
   height="297mm"
   viewBox="0 0 744.09448819 1052.3622047"
   id="svg2"
   version="1.1"
   inkscape:version="0.91 r13725"
   sodipodi:docname="babylllsvg.svg">
  <defs
     id="defs4" />
  <sodipodi:namedview
     id="base"
     pagecolor="#ffffff"
     bordercolor="#666666"
     borderopacity="1.0"
     inkscape:pageopacity="0.0"
     inkscape:pageshadow="2"
     inkscape:zoom="0.35355339"
     inkscape:cx="139.41596"
     inkscape:cy="430.60841"
     inkscape:document-units="px"
     inkscape:current-layer="layer2"
     showgrid="false"
     inkscape:window-width="1237"
     inkscape:window-height="755"
     inkscape:window-x="43"
     inkscape:window-y="1"
     inkscape:window-maximized="1" />
  <metadata
     id="metadata7">
    <rdf:RDF>
      <cc:Work
         rdf:about="">
        <dc:format>image/svg+xml</dc:format>
        <dc:type
           rdf:resource="http://purl.org/dc/dcmitype/StillImage" />
        <dc:title></dc:title>
      </cc:Work>
    </rdf:RDF>
  </metadata>
  <g
     inkscape:groupmode="layer"
     id="layer2"
     inkscape:label="Layer 2">
    <rect
       style="opacity:1;fill:#e2ffda;fill-opacity:1;fill-rule:nonzero;stroke:none;stroke-width:3;stroke-linecap:round;stroke-linejoin:miter;stroke-miterlimit:4;stroke-dasharray:none;stroke-opacity:1"
       id="rect4214"
       width="742.85718"
       height="1054.2858"
       x="2.8571429"
       y="0.93363327"
       ry="0" />
    <path
       style="opacity:1;fill:#4d5940;fill-opacity:1;fill-rule:nonzero;stroke:none;stroke-width:3;stroke-linecap:round;stroke-linejoin:miter;stroke-miterlimit:4;stroke-dasharray:none;stroke-opacity:1"
       d="m 177.14285,494.64795 397.14289,0 c 98.13714,0 177.14285,79.00571 177.14285,177.14285 l 0,317.1429 L 8.5714286,983.2194 2.8571429,671.7908 C 1.0567647,573.67018 79.005712,494.64795 177.14285,494.64795 Z"
       id="path4204"
       inkscape:connector-curvature="0"
       sodipodi:nodetypes="sssccss" />
    <path
       sodipodi:nodetypes="sssccss"
       inkscape:connector-curvature="0"
       id="path4202"
       d="m 177.14285,528.64795 397.14289,0 c 98.13714,0 177.14285,79.00571 177.14285,177.14285 l 0,317.1429 L 8.5714286,1017.2194 2.8571429,705.7908 C 1.0567647,607.67018 79.005712,528.64795 177.14285,528.64795 Z"
       style="opacity:1;fill:#885240;fill-opacity:1;fill-rule:nonzero;stroke:none;stroke-width:3;stroke-linecap:round;stroke-linejoin:miter;stroke-miterlimit:4;stroke-dasharray:none;stroke-opacity:1" />
    <path
       style="opacity:1;fill:#00f8ff;fill-opacity:1;fill-rule:nonzero;stroke:none;stroke-width:3;stroke-linecap:round;stroke-linejoin:miter;stroke-miterlimit:4;stroke-dasharray:none;stroke-opacity:1"
       d="m 177.14285,566.64795 397.14289,0 c 98.13714,0 177.14285,79.00571 177.14285,177.14285 l 0,317.1429 L 1.5003608,1055.2194 2.8571429,743.7908 C 3.284687,645.6546 79.005712,566.64795 177.14285,566.64795 Z"
       id="rect4199"
       inkscape:connector-curvature="0"
       sodipodi:nodetypes="sssccss" />
    <path
       style="fill:#000000;fill-opacity:1;fill-rule:evenodd;stroke:none;stroke-width:1px;stroke-linecap:butt;stroke-linejoin:miter;stroke-opacity:1;opacity:0.05"
       d="m 612.85715,666.84719 c 0,0 -9.83452,-36.37719 -21.17188,-51.36341 -7.50446,-9.91975 -18.2824,-17.78062 -29.64062,-23.70619 -18.11667,-9.45148 -39.24875,-12.7103 -59.28122,-17.77966 -31.39829,-7.94553 -62.93516,-16.44286 -95.2734,-19.75514 -18.94089,-1.94006 -38.28396,-2.40132 -57.16404,0 -26.12661,3.32296 -53.01413,8.06998 -76.21872,19.75514 -19.80578,9.97361 -38.07964,24.16977 -50.81249,41.48585 -17.43119,23.70556 -28.62595,52.39619 -31.7578,80.99615 -1.95803,17.8806 5.21195,35.624 8.46875,53.33894 4.98439,27.11185 8.79215,54.55909 16.93748,80.99615 5.43178,17.62977 10.21078,36.13543 21.17187,51.36344 18.37176,25.52348 47.58395,42.55383 71.98435,63.2165 27.77654,23.52162 52.70275,50.8588 84.68748,69.14304 9.72195,5.5576 20.52274,10.0424 31.7578,11.8532 18.09459,2.9161 55.04687,-1.9757 55.04687,-1.9757 0,0 -19.63003,-13.2746 -27.52343,-21.7306 -16.45971,-17.63315 -31.17304,-37.46083 -40.22656,-59.26545 -17.6047,-42.39941 -27.87645,-88.9233 -25.40623,-134.33511 2.23093,-41.01281 14.2033,-82.85126 35.99216,-118.53095 9.63847,-15.78317 23.32103,-30.50124 40.22655,-39.51032 24.52831,-13.0713 54.34089,-16.85476 82.57028,-17.77965 13.56661,-0.44448 28.37501,-0.25021 40.22656,5.92655 11.36091,5.92105 25.40624,27.65722 25.40624,27.65722 z"
       id="path4170"
       inkscape:connector-curvature="0"
       sodipodi:nodetypes="csssssssssssssscsssssssc" />
    <path
       style="fill:#00ffff;fill-opacity:1;fill-rule:evenodd;stroke:none;stroke-width:1px;stroke-linecap:butt;stroke-linejoin:miter;stroke-opacity:1"
       d="m 352.44317,651.04307 c -11.0816,-10.4997 -23.67199,-8.89054 -35.99216,-11.8531 -12.4709,-2.9988 -25.40466,-7.89314 -38.10937,-5.92655 -10.27947,1.59119 -20.99109,6.25371 -27.52343,13.82862 -3.22091,3.73497 -4.23437,9.03462 -4.23437,13.82861 0,14.38198 1.72559,21.08513 12.70311,41.48584 4.22368,-17.64735 -9.65683,-30.78001 -2.11718,-43.46136 6.28487,-10.57086 21.10811,-15.72461 33.87499,-17.77965 20.46581,-3.29428 33.92901,7.3925 61.39841,9.87759 z"
       id="path4172"
       inkscape:connector-curvature="0"
       sodipodi:nodetypes="csssccssc" />
    <path
       style="fill:#00ffff;fill-opacity:1;fill-rule:evenodd;stroke:none;stroke-width:1px;stroke-linecap:butt;stroke-linejoin:miter;stroke-opacity:1"
       d="m 288.92758,706.35751 c -3.03176,-10.33968 -23.56042,1.20607 -33.87499,5.92654 -7.62979,3.49179 -15.15001,8.76128 -19.05469,15.80414 -2.93635,5.29629 -3.45272,11.94828 -2.11718,17.77966 2.90885,12.70097 17.51473,21.05231 21.17187,33.58376 1.29795,4.44758 6.70805,28.46808 4.23436,16.298 5.1572,-27.986 -2.63966,-36.83866 0,-53.83282 1.44936,-9.33087 -0.28502,-20.54758 6.35156,-27.65722 5.42535,-5.81207 23.28907,-7.90206 23.28907,-7.90206 z"
       id="path4174"
       inkscape:connector-curvature="0"
       sodipodi:nodetypes="csssscssc" />
    <path
       style="fill:#00ffff;fill-opacity:1;fill-rule:evenodd;stroke:none;stroke-width:1px;stroke-linecap:butt;stroke-linejoin:miter;stroke-opacity:1"
       d="m 386.31816,702.40649 c 0,0 -16.922,-2.42827 -25.40623,-1.97553 -7.18532,0.38343 -15.6061,-0.3065 -21.17188,3.95104 -7.095,5.42731 -8.78667,15.31186 -10.58592,23.70619 -2.90651,13.56008 -3.40501,28.02715 0,41.48583 1.08769,4.29922 1.74402,17.31292 6.35155,16.29801 -6.35155,-16.29801 -3.36347,-23.43369 0,-32.10214 1.87641,-4.8359 6.86904,-8.05532 10.58594,-11.8531 4.71117,-4.81368 12.14674,-7.80596 14.82031,-13.8286 2.7007,-6.0838 -4.34313,-14.56479 0,-19.75516 5.37216,-6.42014 25.40623,-5.92654 25.40623,-5.92654 z"
       id="path4176"
       inkscape:connector-curvature="0"
       sodipodi:nodetypes="csssscssssc" />
    <path
       style="fill:#00a6da;fill-opacity:1;fill-rule:evenodd;stroke:none;stroke-width:1px;stroke-linecap:butt;stroke-linejoin:miter;stroke-opacity:1"
       d="M 570.14862,773.69184 554,763.11464 c 0,0 10.41183,-5.85172 16.14862,-7.05147 4.14302,-0.86643 12.68819,0 12.68819,0 l 10.38125,-4.70097 0,4.70097 6.92084,7.05147 8.0743,-4.70097 -1.15347,23.50488 -9.22778,-11.75244 c 0,0 -7.50324,8.70693 -12.68819,9.40194 -5.30959,0.71174 -14.99514,-5.87621 -14.99514,-5.87621 z"
       id="path4216"
       inkscape:connector-curvature="0"
       sodipodi:nodetypes="ccscccccccsc" />
    <path
       sodipodi:nodetypes="ccscccccccsc"
       inkscape:connector-curvature="0"
       id="path4218"
       d="M 259.93607,935.85916 248,922.83428 c 0,0 7.69578,-7.20587 11.93607,-8.68325 3.06226,-1.06694 9.37833,0 9.37833,0 l 7.67318,-5.78883 0,5.78883 5.11546,8.68325 5.96803,-5.78883 -0.85258,28.94417 -6.82061,-14.47208 c 0,0 -5.54593,10.7218 -9.37833,11.57765 -3.92452,0.87644 -11.08348,-7.23603 -11.08348,-7.23603 z"
       style="fill:#00a6da;fill-opacity:1;fill-rule:evenodd;stroke:none;stroke-width:1px;stroke-linecap:butt;stroke-linejoin:miter;stroke-opacity:1" />
    <path
       style="fill:#00a6da;fill-opacity:1;fill-rule:evenodd;stroke:none;stroke-width:1px;stroke-linecap:butt;stroke-linejoin:miter;stroke-opacity:1"
       d="M 151.35732,764.4576 139,757.30714 c 0,0 7.96739,-3.95591 12.35732,-4.76697 3.17034,-0.58573 9.70932,0 9.70932,0 l 7.94399,-3.17797 0,3.17797 5.296,4.76697 6.17865,-3.17797 -0.88267,15.88988 -7.06132,-7.94494 c 0,0 -5.74166,5.8861 -9.70932,6.35595 -4.06303,0.48115 -11.47465,-3.97246 -11.47465,-3.97246 z"
       id="path4220"
       inkscape:connector-curvature="0"
       sodipodi:nodetypes="ccscccccccsc" />
    <path
       style="fill:none;fill-rule:evenodd;stroke:#00c800;stroke-width:5.12808609;stroke-linecap:butt;stroke-linejoin:miter;stroke-miterlimit:4;stroke-dasharray:none;stroke-opacity:1"
       d="m 28.93482,431.85786 18.288617,29.11756 -2.032068,-30.73519 0,25.88226 22.352754,-11.32349"
       id="path4222"
       inkscape:connector-curvature="0" />
    <path
       inkscape:connector-curvature="0"
       id="path4224"
       d="m 84.527317,233.28585 10.291894,21.61225 -1.143544,-22.81292 0,19.21088 12.578983,-8.40476"
       style="fill:none;fill-rule:evenodd;stroke:#00c800;stroke-width:3.31424856;stroke-linecap:butt;stroke-linejoin:miter;stroke-miterlimit:4;stroke-dasharray:none;stroke-opacity:1" />
    <path
       style="fill:none;fill-rule:evenodd;stroke:#00c800;stroke-width:4;stroke-linecap:butt;stroke-linejoin:miter;stroke-miterlimit:4;stroke-dasharray:none;stroke-opacity:1"
       d="m 688.722,468.292 12.72793,25.45585 -1.41422,-26.87006 0,22.62742 15.55636,-9.8995"
       id="path4226"
       inkscape:connector-curvature="0" />
    <path
       inkscape:connector-curvature="0"
       id="path4228"
       d="m 628.93248,261.5503 9.66896,21.6529 -1.07434,-22.85584 0,19.24702 11.81762,-8.42057"
       style="fill:none;fill-rule:evenodd;stroke:#00c800;stroke-width:3.21540141;stroke-linecap:butt;stroke-linejoin:miter;stroke-miterlimit:4;stroke-dasharray:none;stroke-opacity:1" />
  </g>
  <g
     inkscape:label="Layer 1"
     inkscape:groupmode="layer"
     id="layer1"
     style="display:inline">
    <path
       style="fill:#99cf57;fill-opacity:1;fill-rule:evenodd;stroke:none;stroke-width:1px;stroke-linecap:butt;stroke-linejoin:miter;stroke-opacity:1"
       d="m 154.28571,230.93363 c -1.66082,97.59446 21.42248,206.55613 85.71429,280 16.56131,18.91884 43.63709,28.19156 68.57143,31.42857 96.8113,12.56815 221.37569,20.8175 288.57143,-50 38.62248,-40.70418 51.49411,-131.74598 20,-167.14286 -5.11376,-5.74746 -13.73897,-8.80346 -21.42857,-8.57143 -46.2477,1.39549 -93.73496,31.28257 -138.57143,18.57143 -6.51133,-1.84596 -12.90205,-6.70114 -15.71429,-12.85714 -21.18024,-46.3636 24.43693,-106.03712 4.28572,-152.85715 -14.39875,-33.45454 -46.36242,-63.01361 -81.42858,-72.857137 -60.60818,-17.01351 -139.97936,-8.97082 -185.71428,34.285717 -24.92119,23.57071 -23.73738,67.77814 -24.28572,100 z"
       id="path4151"
       inkscape:connector-curvature="0"
       sodipodi:nodetypes="sssassaaaaas" />
    <ellipse
       style="opacity:1;fill:#ffffff;fill-opacity:1;fill-rule:nonzero;stroke:none;stroke-width:3;stroke-linecap:round;stroke-linejoin:miter;stroke-miterlimit:4;stroke-dasharray:none;stroke-opacity:1"
       id="path4153"
       cx="231.42857"
       cy="220.21936"
       rx="35.714283"
       ry="42.142857" />
    <path
       style="fill:#c25957;fill-opacity:1;fill-rule:evenodd;stroke:none;stroke-width:1px;stroke-linecap:butt;stroke-linejoin:miter;stroke-opacity:1"
       d="m 202.85714,186.64792 c -16.5851,17.08961 -18.29519,54.61675 -1.42857,71.42857 14.50631,14.45918 47.94721,13.99071 61.42857,-1.42857 8.51483,-9.73882 5.71845,-30.36998 -4.28571,-38.57143 -8.5019,-6.96989 -25.36792,10.90532 -32.85715,2.85714 -8.21302,-8.82598 13.76362,-26.73878 5.71429,-35.71429 -6.36653,-7.09909 -21.93043,-5.41443 -28.57143,1.42858 z"
       id="path4136"
       inkscape:connector-curvature="0"
       sodipodi:nodetypes="asssssa" />
    <ellipse
       ry="42.142857"
       rx="35.714283"
       cy="211.64792"
       cx="355.71426"
       id="ellipse4157"
       style="opacity:1;fill:#ffffff;fill-opacity:1;fill-rule:nonzero;stroke:none;stroke-width:3;stroke-linecap:round;stroke-linejoin:miter;stroke-miterlimit:4;stroke-dasharray:none;stroke-opacity:1" />
    <path
       sodipodi:nodetypes="asssssa"
       inkscape:connector-curvature="0"
       id="path4147"
       d="m 331.42857,175.21935 c -16.5851,17.08961 -18.29519,54.61675 -1.42857,71.42857 14.50631,14.45918 47.94721,13.99071 61.42857,-1.42857 8.51483,-9.73882 5.71845,-30.36998 -4.28571,-38.57143 -8.5019,-6.96989 -25.36792,10.90532 -32.85715,2.85714 -8.21302,-8.82598 13.76362,-26.73878 5.71429,-35.71429 -6.36653,-7.09909 -21.93043,-5.41443 -28.57143,1.42858 z"
       style="fill:#005957;fill-opacity:1;fill-rule:evenodd;stroke:none;stroke-width:1px;stroke-linecap:butt;stroke-linejoin:miter;stroke-opacity:1" />
    <path
       style="fill:#c25957;fill-opacity:1;fill-rule:evenodd;stroke:none;stroke-width:1px;stroke-linecap:butt;stroke-linejoin:miter;stroke-opacity:1"
       d="m 242.85714,293.79077 c 6.7034,4.53842 -6.09991,18.96369 0,24.28572 34.4054,30.01793 108.1201,-54.94956 135.71429,-18.57143 9.40923,12.40443 -5.70908,34.08425 -18.57143,42.85714 -33.45959,22.82145 -87.61945,26.58608 -121.42857,4.28572 -13.21374,-8.71573 -23.45951,-29.77135 -17.14286,-44.28572 3.06991,-7.05403 15.05817,-12.8844 21.42857,-8.57143 z"
       id="path4149"
       inkscape:connector-curvature="0"
       sodipodi:nodetypes="sssssss" />
    <path
       sodipodi:nodetypes="asssssa"
       inkscape:connector-curvature="0"
       id="path4155"
       d="m 202.85714,186.64792 c -16.5851,17.08961 -18.29519,54.61675 -1.42857,71.42857 14.50631,14.45918 47.94721,13.99071 61.42857,-1.42857 8.51483,-9.73882 5.71845,-30.36998 -4.28571,-38.57143 -8.5019,-6.96989 -25.36792,10.90532 -32.85715,2.85714 -8.21302,-8.82598 13.76362,-26.73878 5.71429,-35.71429 -6.36653,-7.09909 -21.93043,-5.41443 -28.57143,1.42858 z"
       style="fill:#005957;fill-opacity:1;fill-rule:evenodd;stroke:none;stroke-width:1px;stroke-linecap:butt;stroke-linejoin:miter;stroke-opacity:1" />
  </g>
</svg>
