<?xml version="1.0" encoding="UTF-8" standalone="no"?>
<!-- Created with Inkscape (http://www.inkscape.org/) -->

<svg
   xmlns:dc="http://purl.org/dc/elements/1.1/"
   xmlns:cc="http://creativecommons.org/ns#"
   xmlns:rdf="http://www.w3.org/1999/02/22-rdf-syntax-ns#"
   xmlns:svg="http://www.w3.org/2000/svg"
   xmlns="http://www.w3.org/2000/svg"
   xmlns:sodipodi="http://sodipodi.sourceforge.net/DTD/sodipodi-0.dtd"
   xmlns:inkscape="http://www.inkscape.org/namespaces/inkscape"
   width="210mm"
   height="297mm"
   viewBox="0 0 744.09448819 1052.3622047"
   id="svg2"
   version="1.1"
   inkscape:version="0.91 r13725"
   sodipodi:docname="doraemon.svg">
  <defs
     id="defs4" />
  <sodipodi:namedview
     id="base"
     pagecolor="#ffffff"
     bordercolor="#666666"
     borderopacity="1.0"
     inkscape:pageopacity="0.0"
     inkscape:pageshadow="2"
     inkscape:zoom="0.54"
     inkscape:cx="398.95331"
     inkscape:cy="604.77698"
     inkscape:document-units="px"
     inkscape:current-layer="layer1"
     showgrid="false"
     inkscape:window-width="1237"
     inkscape:window-height="755"
     inkscape:window-x="36"
     inkscape:window-y="0"
     inkscape:window-maximized="0" />
  <metadata
     id="metadata7">
    <rdf:RDF>
      <cc:Work
         rdf:about="">
        <dc:format>image/svg+xml</dc:format>
        <dc:type
           rdf:resource="http://purl.org/dc/dcmitype/StillImage" />
        <dc:title></dc:title>
      </cc:Work>
    </rdf:RDF>
  </metadata>
  <g
     inkscape:label="Layer 1"
     inkscape:groupmode="layer"
     id="layer1">
    <path
       sodipodi:nodetypes="ccccc"
       inkscape:connector-curvature="0"
       id="path4220"
       d="m 268.22855,563.8756 54.66482,-31.10808 0,75.77608 -54.66482,39.0845 z"
       style="fill:none;fill-opacity:1;fill-rule:nonzero;stroke:#000000;stroke-width:5;stroke-linecap:round;stroke-linejoin:miter;stroke-miterlimit:4;stroke-dasharray:none;stroke-opacity:1" />
    <path
       style="fill:none;fill-opacity:1;fill-rule:nonzero;stroke:#000000;stroke-width:5;stroke-linecap:round;stroke-linejoin:miter;stroke-miterlimit:4;stroke-dasharray:none;stroke-opacity:1"
       d="m 255.4634,546.21586 81.70732,-47.56098 0,115.85367 -81.70732,59.7561 z"
       id="rect4217"
       inkscape:connector-curvature="0"
       sodipodi:nodetypes="ccccc" />
    <path
       style="fill:none;fill-opacity:1;fill-rule:nonzero;stroke:#000000;stroke-width:5;stroke-linecap:round;stroke-linejoin:miter;stroke-miterlimit:4;stroke-dasharray:none;stroke-opacity:1"
       d="M 368.87806,415.72806 722.5366,439.33781 667.65855,511.28903 281.07318,474.70366 Z"
       id="rect4214"
       inkscape:connector-curvature="0"
       sodipodi:nodetypes="ccccc" />
    <path
       style="fill:#ffffff;fill-opacity:1;fill-rule:nonzero;stroke:#000000;stroke-width:5.89024544;stroke-linecap:round;stroke-linejoin:miter;stroke-miterlimit:4;stroke-dasharray:none;stroke-opacity:1"
       d="m 404.35647,494.19419 c 0,38.15416 -40.545,79.70169 -85.25597,79.70169 -44.71097,0 -74.92305,-35.44482 -74.92305,-73.59897 0,-38.15416 29.20652,-69.98717 73.91749,-69.98717 25.35537,0 48.31162,11.68933 63.43561,28.76847 5.76634,6.51179 -3.04215,-9.35832 0.14594,-1.62866 1.6325,3.95805 -56.23215,67.39135 -55.39507,71.53033 0.80119,3.96155 78.07505,-38.82892 78.07505,-34.78569 z"
       id="path4168"
       inkscape:connector-curvature="0"
       sodipodi:nodetypes="ssssssss" />
    <ellipse
       style="fill:#ffffff;fill-opacity:1;fill-rule:nonzero;stroke:#000000;stroke-width:5.66799355;stroke-linecap:round;stroke-linejoin:round;stroke-miterlimit:4;stroke-dasharray:none;stroke-opacity:1"
       id="path4136"
       ry="87.700043"
       rx="118.78193"
       cy="386.07339"
       cx="287.42554" />
    <path
       style="fill:#ffffff;fill-opacity:1;fill-rule:nonzero;stroke:#000000;stroke-width:5.90781498;stroke-linecap:round;stroke-linejoin:round;stroke-miterlimit:4;stroke-dasharray:none;stroke-opacity:1"
       id="path4138"
       sodipodi:type="arc"
       sodipodi:cx="256.75613"
       sodipodi:cy="394.19995"
       sodipodi:rx="112.11929"
       sodipodi:ry="74.945076"
       sodipodi:start="0"
       sodipodi:end="0.011880543"
       sodipodi:open="true"
       d="m 368.87543,394.19995 a 112.11929,74.945076 0 0 1 -0.008,0.89037" />
    <ellipse
       style="fill:#ffffff;fill-opacity:1;fill-rule:nonzero;stroke:#000000;stroke-width:5.82836723;stroke-linecap:round;stroke-linejoin:round;stroke-miterlimit:4;stroke-dasharray:none;stroke-opacity:1"
       id="path4140"
       cx="276.58569"
       cy="403.22949"
       rx="104.11678"
       ry="71.370911" />
    <ellipse
       style="fill:#ffffff;fill-opacity:1;fill-rule:nonzero;stroke:#000000;stroke-width:5.90781498;stroke-linecap:round;stroke-linejoin:round;stroke-miterlimit:4;stroke-dasharray:none;stroke-opacity:1"
       id="path4142"
       cx="244.68948"
       cy="344.98904"
       rx="19.608303"
       ry="20.316437" />
    <ellipse
       style="fill:#ffffff;fill-opacity:1;fill-rule:nonzero;stroke:#000000;stroke-width:5.90781498;stroke-linecap:round;stroke-linejoin:round;stroke-miterlimit:4;stroke-dasharray:none;stroke-opacity:1"
       id="path4144"
       cx="290.4422"
       cy="345.89197"
       rx="22.122189"
       ry="23.025295" />
    <ellipse
       style="fill:#ffffff;fill-opacity:1;fill-rule:nonzero;stroke:#000000;stroke-width:5.90781498;stroke-linecap:round;stroke-linejoin:round;stroke-miterlimit:4;stroke-dasharray:none;stroke-opacity:1"
       id="path4146"
       cx="256.25339"
       cy="351.30969"
       rx="6.0333242"
       ry="6.7721453" />
    <ellipse
       style="fill:#ffffff;fill-opacity:1;fill-rule:nonzero;stroke:#000000;stroke-width:5.90781498;stroke-linecap:round;stroke-linejoin:round;stroke-miterlimit:4;stroke-dasharray:none;stroke-opacity:1"
       id="path4148"
       cx="276.86725"
       cy="350.85822"
       rx="5.5305471"
       ry="6.3206692" />
    <ellipse
       style="fill:#ffffff;fill-opacity:1;fill-rule:nonzero;stroke:#000000;stroke-width:5.90781498;stroke-linecap:round;stroke-linejoin:round;stroke-miterlimit:4;stroke-dasharray:none;stroke-opacity:1"
       id="path4150"
       cx="263.79504"
       cy="368.46579"
       rx="8.5472097"
       ry="5.8691931" />
    <path
       style="fill:none;fill-rule:evenodd;stroke:#000000;stroke-width:5.90781498;stroke-linecap:round;stroke-linejoin:miter;stroke-miterlimit:4;stroke-dasharray:none;stroke-opacity:1"
       d="m 260.27558,377.04385 c -10.76143,28.7988 5.02778,62.30375 5.02778,62.30375"
       id="path4152"
       inkscape:connector-curvature="0"
       sodipodi:nodetypes="cc" />
    <path
       style="fill:none;fill-rule:evenodd;stroke:#000000;stroke-width:5.90781498;stroke-linecap:round;stroke-linejoin:miter;stroke-miterlimit:4;stroke-dasharray:none;stroke-opacity:1"
       d="m 194.91456,395.10291 c 73.06961,104.54266 159.67133,2.96241 159.8831,2.70886"
       id="path4154"
       inkscape:connector-curvature="0"
       sodipodi:nodetypes="cc" />
    <path
       style="fill:none;fill-rule:evenodd;stroke:#000000;stroke-width:5.90781498;stroke-linecap:round;stroke-linejoin:round;stroke-miterlimit:4;stroke-dasharray:none;stroke-opacity:1"
       d="m 294.46442,392.39406 c 24.1333,-18.05906 27.14996,-17.15611 27.14996,-17.15611"
       id="path4156"
       inkscape:connector-curvature="0" />
    <path
       style="fill:none;fill-rule:evenodd;stroke:#000000;stroke-width:5.90781498;stroke-linecap:round;stroke-linejoin:miter;stroke-miterlimit:4;stroke-dasharray:none;stroke-opacity:1"
       d="m 303.51441,400.52063 c 25.13885,-13.54429 27.14996,-13.54429 27.14996,-13.54429"
       id="path4158"
       inkscape:connector-curvature="0" />
    <path
       style="fill:none;fill-rule:evenodd;stroke:#000000;stroke-width:5.90781498;stroke-linecap:round;stroke-linejoin:miter;stroke-miterlimit:4;stroke-dasharray:none;stroke-opacity:1"
       d="m 312.56439,405.93834 c 11.0611,-4.51476 10.05554,-4.51476 10.05554,-4.51476"
       id="path4160"
       inkscape:connector-curvature="0" />
    <path
       style="fill:none;fill-rule:evenodd;stroke:#000000;stroke-width:5.90781498;stroke-linecap:round;stroke-linejoin:miter;stroke-miterlimit:4;stroke-dasharray:none;stroke-opacity:1"
       d="m 209.99787,373.43205 c 11.06109,8.12657 13.07221,8.12657 13.07221,8.12657"
       id="path4162"
       inkscape:connector-curvature="0" />
    <path
       style="fill:none;fill-rule:evenodd;stroke:#000000;stroke-width:5.90781498;stroke-linecap:round;stroke-linejoin:miter;stroke-miterlimit:4;stroke-dasharray:none;stroke-opacity:1"
       d="m 198.93678,382.46157 c 24.1333,10.83543 24.1333,10.83543 24.1333,10.83543 l 0,0 1.00556,0"
       id="path4164"
       inkscape:connector-curvature="0" />
    <path
       style="fill:none;fill-rule:evenodd;stroke:#000000;stroke-width:5.90781498;stroke-linecap:round;stroke-linejoin:miter;stroke-miterlimit:4;stroke-dasharray:none;stroke-opacity:1"
       d="m 206.98121,396.90881 c 11.0611,3.61182 10.05554,3.61182 10.05554,3.61182"
       id="path4166"
       inkscape:connector-curvature="0" />
    <path
       style="fill:none;fill-rule:evenodd;stroke:#000000;stroke-width:5.90781498;stroke-linecap:round;stroke-linejoin:miter;stroke-miterlimit:4;stroke-dasharray:none;stroke-opacity:1"
       d="m 386.97539,436.63874 c 34.26835,28.3194 57.06425,61.44633 51.28326,106.54842"
       id="path4170"
       inkscape:connector-curvature="0"
       sodipodi:nodetypes="cc" />
    <path
       style="fill:none;fill-rule:evenodd;stroke:#000000;stroke-width:5.90781498;stroke-linecap:round;stroke-linejoin:miter;stroke-miterlimit:4;stroke-dasharray:none;stroke-opacity:1"
       d="M 386.97539,453.79484 C 353.79211,491.71886 351.781,491.71886 351.781,491.71886"
       id="path4173"
       inkscape:connector-curvature="0" />
    <path
       style="fill:none;fill-rule:evenodd;stroke:#000000;stroke-width:5.90781498;stroke-linecap:round;stroke-linejoin:miter;stroke-miterlimit:4;stroke-dasharray:none;stroke-opacity:1"
       d="m 406.08092,489.91295 c -36.19994,20.76792 -36.19994,22.57381 -36.19994,22.57381"
       id="path4175"
       inkscape:connector-curvature="0" />
    <path
       style="fill:none;fill-rule:evenodd;stroke:#000000;stroke-width:5.90781498;stroke-linecap:round;stroke-linejoin:miter;stroke-miterlimit:4;stroke-dasharray:none;stroke-opacity:1"
       d="m 244.18672,473.6598 c -25.13885,50.56536 -25.13885,50.56536 -25.13885,50.56536"
       id="path4181"
       inkscape:connector-curvature="0" />
    <path
       style="fill:#ffffff;fill-opacity:1;fill-rule:nonzero;stroke:#000000;stroke-width:5.90781498;stroke-linecap:round;stroke-linejoin:miter;stroke-miterlimit:4;stroke-dasharray:none;stroke-opacity:1"
       d="m 193.90902,504.36021 218.20522,27.08858 1.00555,61.4008 -216.19412,-39.72993 z"
       id="rect4185"
       inkscape:connector-curvature="0"
       sodipodi:nodetypes="ccccc" />
    <ellipse
       style="fill:#ffffff;fill-opacity:1;fill-rule:nonzero;stroke:#000000;stroke-width:5.90781498;stroke-linecap:round;stroke-linejoin:miter;stroke-miterlimit:4;stroke-dasharray:none;stroke-opacity:1"
       id="path4177"
       cx="346.75323"
       cy="513.84119"
       rx="24.133297"
       ry="19.413483" />
    <ellipse
       style="fill:#ffffff;fill-opacity:1;fill-rule:nonzero;stroke:#000000;stroke-width:4.97773933;stroke-linecap:round;stroke-linejoin:miter;stroke-miterlimit:4;stroke-dasharray:none;stroke-opacity:1"
       id="path4183"
       cx="227.59509"
       cy="516.09857"
       rx="19.093498"
       ry="14.88792" />
    <path
       style="fill:#ffffff;fill-opacity:1;fill-rule:nonzero;stroke:#000000;stroke-width:5.90781498;stroke-linecap:round;stroke-linejoin:miter;stroke-miterlimit:4;stroke-dasharray:none;stroke-opacity:1"
       d="m 412.11424,532.35173 79.43877,-38.82697 1.00556,53.27421 -80.44433,45.14763 z"
       id="rect4188"
       inkscape:connector-curvature="0"
       sodipodi:nodetypes="ccccc" />
    <path
       style="fill:#b3b3b3;fill-opacity:1;fill-rule:nonzero;stroke:none;stroke-width:16.12903214;stroke-linecap:round;stroke-linejoin:miter;stroke-miterlimit:4;stroke-dasharray:none;stroke-opacity:1"
       d="m 366.93745,443.9075 c 16.57112,-18.53099 21.34931,-39.35694 13.74175,-59.89393 -7.77044,-20.9767 -31.5691,-40.31907 -60.29616,-49.00573 -5.90261,-1.78487 -7.60362,-2.77257 -10.09613,-5.8623 -4.69399,-5.8187 -10.12908,-8.57816 -17.75448,-9.01416 -7.95148,-0.45465 -13.8643,1.37262 -18.59761,5.74733 -4.48953,4.14941 -9.47259,4.29876 -14.88947,0.44627 -4.99632,-3.5534 -8.16389,-4.54585 -14.43267,-4.522 -9.40942,0.0358 -16.69072,4.51682 -20.75692,12.77416 -1.82226,3.7005 -3.00585,4.66629 -9.68111,7.89949 -17.63739,8.54278 -32.63538,22.34354 -39.62452,36.46144 -1.83618,3.70904 -1.87987,3.73345 -1.94241,1.08553 -0.0351,-1.48988 0.85539,-6.15277 1.97907,-10.362 8.13746,-30.48242 39.053,-55.28748 80.60282,-64.6716 12.61419,-2.84895 37.30016,-3.92659 51.38701,-2.24326 49.42687,5.90635 89.2108,36.84408 95.27579,74.09063 3.00988,18.48429 -2.90056,37.1639 -17.09033,54.01299 -5.53139,6.56804 -20.26735,19.11799 -22.47744,19.14305 -0.43864,0.005 1.65513,-2.73369 4.65281,-6.08591 z"
       id="path4191"
       inkscape:connector-curvature="0" />
    <path
       style="fill:#999999;fill-opacity:1;fill-rule:nonzero;stroke:none;stroke-width:0.49851298;stroke-linecap:round;stroke-linejoin:miter;stroke-miterlimit:4;stroke-dasharray:none;stroke-opacity:1"
       d="m 405.18365,527.55997 c -3.10378,-0.40208 -5.70794,-0.7766 -5.78702,-0.83227 -0.079,-0.0556 0.85039,-2.32635 2.06548,-5.04596 1.2151,-2.71962 2.88962,-7.367 3.72116,-10.32751 1.52953,-5.44559 3.03898,-15.94816 2.5389,-17.66537 -0.16121,-0.55355 0.14223,-1.27108 0.74449,-1.76051 2.02279,-1.64382 0.59444,-5.02005 -2.1238,-5.02005 -0.95869,0 -4.76924,1.91831 -10.99637,5.53579 -7.9158,4.59849 -15.77496,8.75913 -22.22824,11.76766 -1.04571,0.48751 -1.29691,0.33709 -2.51098,-1.50364 -1.8445,-2.7966 -5.96566,-6.30773 -9.35012,-7.96611 l -2.81148,-1.37762 7.57648,-9.14005 c 4.16706,-5.02703 9.1606,-11.20321 11.09672,-13.72487 4.36898,-5.69023 5.42014,-6.75657 6.66041,-6.75657 1.54358,0 3.12864,-1.75905 3.15287,-3.49894 0.0142,-1.01973 0.5783,-2.15309 1.61236,-3.23941 3.54368,-3.72282 0.26221,-8.28856 -3.86296,-5.3748 -1.98712,1.40359 -4.48218,1.00344 -6.8172,-1.09332 l -1.95921,-1.75931 4.99333,-4.46178 4.99332,-4.46177 7.90125,7.23919 c 20.16921,18.47919 32.63153,36.85259 38.23646,56.37265 1.96716,6.85092 3.1241,13.68206 2.41852,14.28015 -1.30276,1.10432 -21.63439,10.66036 -22.56654,10.60647 -0.58003,-0.0335 -3.59404,-0.38996 -6.69783,-0.79205 z"
       id="path4197"
       inkscape:connector-curvature="0" />
    <ellipse
       style="fill:none;fill-opacity:1;fill-rule:nonzero;stroke:#000000;stroke-width:5.90781498;stroke-linecap:round;stroke-linejoin:miter;stroke-miterlimit:4;stroke-dasharray:none;stroke-opacity:1"
       id="path4199"
       cx="282.18973"
       cy="492.94092"
       rx="20.423151"
       ry="15.684912" />
    <path
       style="fill:none;fill-rule:evenodd;stroke:#000000;stroke-width:5.90781498;stroke-linecap:round;stroke-linejoin:miter;stroke-miterlimit:4;stroke-dasharray:none;stroke-opacity:1"
       d="m 264.45383,490.28658 c 17.82267,15.05693 35.47152,1.44804 35.47179,1.44785"
       id="path4201"
       inkscape:connector-curvature="0"
       sodipodi:nodetypes="cc" />
    <path
       style="fill:none;fill-rule:evenodd;stroke:#000000;stroke-width:5.90781498;stroke-linecap:round;stroke-linejoin:miter;stroke-miterlimit:4;stroke-dasharray:none;stroke-opacity:1"
       d="m 278.96502,492.21703 c -4.7791,17.73933 1.49111,14.52194 1.61235,14.47839"
       id="path4203"
       inkscape:connector-curvature="0"
       sodipodi:nodetypes="cc" />
    <path
       style="fill:none;fill-opacity:1;fill-rule:nonzero;stroke:#000000;stroke-width:5;stroke-linecap:round;stroke-linejoin:miter;stroke-miterlimit:4;stroke-dasharray:none;stroke-opacity:1"
       d="m 494.48779,493.77686 173.17074,18.29268 1.21951,237.80487 -170.73171,-32.92683 z"
       id="rect4211"
       inkscape:connector-curvature="0"
       sodipodi:nodetypes="ccccc" />
    <path
       sodipodi:nodetypes="ccccc"
       inkscape:connector-curvature="0"
       id="path4222"
       d="m 505.01152,509.03136 137.59389,15.23105 6.19351,49.43348 -143.16316,-12.62195 z"
       style="fill:none;fill-opacity:1;fill-rule:nonzero;stroke:#000000;stroke-width:4.52111721;stroke-linecap:round;stroke-linejoin:miter;stroke-miterlimit:4;stroke-dasharray:none;stroke-opacity:1" />
    <path
       style="fill:none;fill-opacity:1;fill-rule:nonzero;stroke:#000000;stroke-width:4.52111721;stroke-linecap:round;stroke-linejoin:miter;stroke-miterlimit:4;stroke-dasharray:none;stroke-opacity:1"
       d="m 506.23103,574.88502 142.7663,15.23105 -0.70303,54.60589 -141.43903,-17.79436 z"
       id="path4224"
       inkscape:connector-curvature="0"
       sodipodi:nodetypes="ccccc" />
    <path
       sodipodi:nodetypes="ccccc"
       inkscape:connector-curvature="0"
       id="path4226"
       d="m 506.23103,645.61673 144.49044,20.40346 -0.70304,63.22658 -143.16316,-31.58746 z"
       style="fill:none;fill-opacity:1;fill-rule:nonzero;stroke:#000000;stroke-width:4.52111721;stroke-linecap:round;stroke-linejoin:miter;stroke-miterlimit:4;stroke-dasharray:none;stroke-opacity:1" />
    <path
       style="fill:none;fill-opacity:1;fill-rule:nonzero;stroke:#000000;stroke-width:5;stroke-linecap:round;stroke-linejoin:miter;stroke-miterlimit:4;stroke-dasharray:none;stroke-opacity:1"
       d="m 670.09753,510.85004 53.65854,-73.17073 -2.43903,235.36584 -51.21951,75.60976 z"
       id="rect4228"
       inkscape:connector-curvature="0"
       sodipodi:nodetypes="ccccc" />
    <path
       style="fill:#cccccc;fill-opacity:1;fill-rule:nonzero;stroke:none;stroke-width:6.09756088;stroke-linecap:round;stroke-linejoin:miter;stroke-miterlimit:4;stroke-dasharray:none;stroke-opacity:1"
       d="m 629.66832,504.68791 c -81.65705,-8.14915 -134.08728,-14.06776 -134.79735,-15.21667 -0.54208,-0.87711 -1.78895,-0.82223 -3.97783,0.17509 -2.51414,1.14552 -7.90561,1.01923 -25.49922,-0.59727 -35.29724,-3.24312 -32.07927,-2.31685 -36.43405,-10.48725 -5.16389,-9.68845 -17.63916,-24.99013 -28.6335,-35.12074 l -9.18656,-8.46484 4.63011,-6.81897 c 3.23472,-4.76392 5.44313,-6.83298 7.32785,-6.86547 4.96409,-0.0856 311.69281,20.64487 312.14438,21.09644 0.2449,0.2449 -10.58671,14.93244 -24.07023,32.63898 -22.55355,29.61726 -24.82442,32.20922 -28.3754,32.38765 -2.12295,0.10667 -17.03064,-1.12046 -33.1282,-2.72695 z"
       id="path4235"
       inkscape:connector-curvature="0" />
    <path
       style="fill:#999999;fill-opacity:1;fill-rule:nonzero;stroke:none;stroke-width:5;stroke-linecap:round;stroke-linejoin:miter;stroke-miterlimit:4;stroke-dasharray:none;stroke-opacity:1"
       d="m 672.961,625.07046 0,-112.55115 23.47561,-32.07548 c 12.91159,-17.64152 23.65167,-31.9198 23.86684,-31.72952 0.21518,0.19029 -0.19435,50.4748 -0.91006,111.74336 l -1.30128,111.39739 -20.91058,31.09756 c -11.50082,17.10366 -21.65532,31.90113 -22.56556,32.88328 -1.39456,1.50473 -1.65497,-15.92405 -1.65497,-110.76544 z"
       id="path4237"
       inkscape:connector-curvature="0" />
    <path
       style="fill:#999999;fill-opacity:1;fill-rule:nonzero;stroke:none;stroke-width:5;stroke-linecap:round;stroke-linejoin:miter;stroke-miterlimit:4;stroke-dasharray:none;stroke-opacity:1"
       d="m 415.92474,560.14159 0.32895,-25.61478 35.05811,-17.21272 c 19.28196,-9.467 35.47099,-16.80092 35.97561,-16.2976 0.50462,0.50331 0.9175,10.60392 0.9175,22.44578 l 0,21.53067 -16.59542,9.29604 c -9.12748,5.11282 -25.46453,14.28459 -36.30456,20.38171 l -19.70915,11.08569 0.32896,-25.61479 z"
       id="path4253"
       inkscape:connector-curvature="0" />
    <path
       style="fill:#999999;fill-opacity:1;fill-rule:nonzero;stroke:none;stroke-width:5;stroke-linecap:round;stroke-linejoin:miter;stroke-miterlimit:4;stroke-dasharray:none;stroke-opacity:1"
       d="m 303.28781,569.06061 -103.20978,-19.05594 -0.84687,-18.3431 c -0.46578,-10.0887 -1.10871,-19.45797 -1.42873,-20.82058 -0.51924,-2.21087 -0.0827,-2.4301 4.05665,-2.03714 l 4.63851,0.44034 -0.40539,6.39729 c -0.34411,5.4301 0.0686,6.96059 2.72973,10.12317 4.4976,5.34509 10.25011,7.67577 18.94513,7.67577 11.98875,0 19.71728,-5.23862 21.59743,-14.63936 0.40186,-2.00933 1.27565,-3.65332 1.94176,-3.65332 0.6661,0 16.59434,1.93926 35.39609,4.30948 l 34.18499,4.30947 4.55836,4.69707 c 5.63997,5.81161 11.61218,7.95958 22.02624,7.92195 6.31079,-0.0228 9.47083,-0.74921 14.64284,-3.36601 l 6.59534,-3.33694 15.84496,1.91728 c 8.71473,1.0545 17.6285,2.23544 19.80837,2.6243 0,0 3.10183,-0.32185 3.96342,0.70704 5.7126,6.82187 0,26.69354 0,26.69354 0,14.68145 -0.41159,26.64812 -0.91464,26.59259 -0.50304,-0.0555 -47.35903,-8.67613 -104.12441,-19.1569 z"
       id="path4255"
       inkscape:connector-curvature="0"
       sodipodi:nodetypes="scssscsssssscssscsssscs" />
    <path
       style="fill:#999999;fill-opacity:1;fill-rule:nonzero;stroke:none;stroke-width:5;stroke-linecap:round;stroke-linejoin:miter;stroke-miterlimit:4;stroke-dasharray:none;stroke-opacity:1"
       d="m 439.08194,503.24696 c -1.48713,-5.75266 -2.56721,-10.5191 -2.4002,-10.59208 0.16701,-0.073 9.35853,0.74978 20.42561,1.82837 l 20.12195,1.96107 -13.13828,6.29269 c -7.22606,3.46099 -15.20084,7.34494 -17.72176,8.63101 l -4.58347,2.33832 -2.70385,-10.45938 z"
       id="path4257"
       inkscape:connector-curvature="0" />
    <path
       style="fill:#999999;fill-opacity:1;fill-rule:nonzero;stroke:none;stroke-width:5;stroke-linecap:round;stroke-linejoin:miter;stroke-miterlimit:4;stroke-dasharray:none;stroke-opacity:1"
       d="m 258.32686,617.79797 0,-49.78879 3.64289,0.53467 3.64289,0.53466 0.32052,42.00815 0.32053,42.00816 29.57317,-21.08394 29.57317,-21.08394 0,-15.04004 0,-15.04004 3.96341,0.38215 3.96342,0.38214 0,15.79902 0,15.79902 -37.15592,27.18879 c -20.43575,14.95383 -37.31075,27.18878 -37.49999,27.18878 -0.18925,0 -0.34409,-22.40495 -0.34409,-49.78879 z"
       id="path4259"
       inkscape:connector-curvature="0" />
    <path
       style="fill:none;fill-opacity:1;fill-rule:nonzero;stroke:#000000;stroke-width:5;stroke-linecap:round;stroke-linejoin:miter;stroke-miterlimit:4;stroke-dasharray:none;stroke-opacity:1"
       d="m 639.71488,275.25288 c -10e-6,40.74784 -46.68251,73.78048 -104.2683,73.78048 -19.91117,0 -38.51881,-3.94918 -54.3439,-10.80096 -7.841,-3.39491 -49.78087,6.28384 -56.85494,7.68801 -24.49774,4.86267 35.58526,-0.28312 27.83757,-26.34182 -6.16692,-20.74193 -20.90704,-27.69037 -20.90704,-44.32571 -10e-6,-40.74784 46.68251,-73.78049 104.26831,-73.78049 57.58579,0 104.2683,33.03265 104.2683,73.78049 z"
       id="path4261"
       inkscape:connector-curvature="0"
       sodipodi:nodetypes="ssssssss" />
    <path
       style="fill:none;fill-opacity:1;fill-rule:nonzero;stroke:#000000;stroke-width:5.10155869;stroke-linecap:round;stroke-linejoin:miter;stroke-miterlimit:4;stroke-dasharray:none;stroke-opacity:1"
       d="m 181.19061,302.34497 c 0,25.96191 -8.84503,49.53994 -23.24745,66.94036 -3.68393,4.45077 -15.68464,7.73517 -12.08756,12.0763 43.62629,52.65037 -13.40806,9.47194 -20.93068,12.50723 -8.6829,3.50345 -18.01632,5.40809 -27.73525,5.40809 -46.392441,0 -84.000947,-43.39792 -84.000949,-96.93198 2e-6,-53.53406 37.608508,-96.93198 84.000949,-96.93198 46.39244,0 84.00094,43.39793 84.00094,96.93198 z"
       id="path4264"
       inkscape:connector-curvature="0"
       sodipodi:nodetypes="ssssssss" />
    <g
       id="g4297"
       transform="translate(72.62069,-99.586207)">
      <path
         style="fill:none;fill-rule:evenodd;stroke:#000000;stroke-width:4.21099997;stroke-linecap:round;stroke-linejoin:miter;stroke-miterlimit:4;stroke-dasharray:none;stroke-opacity:1"
         d="m 167.24137,919.60357 63.79311,-36.20689 c 5.02313,-2.85096 6.65252,14.2296 1.72414,17.24138 l -62.06897,37.93103 0,0 z"
         id="path4295"
         inkscape:connector-curvature="0"
         sodipodi:nodetypes="cssccc" />
      <path
         style="fill:none;fill-rule:evenodd;stroke:#000000;stroke-width:4.21099997;stroke-linecap:round;stroke-linejoin:miter;stroke-miterlimit:4;stroke-dasharray:none;stroke-opacity:1"
         d="m 191.3793,940.29324 63.79311,-36.20689 c 5.02313,-2.85096 6.65252,14.2296 1.72414,17.24138 l -62.06897,37.93103 0,0 z"
         id="path4293"
         inkscape:connector-curvature="0"
         sodipodi:nodetypes="cssccc" />
      <path
         style="fill:#ffffff;fill-opacity:1;fill-rule:nonzero;stroke:#000000;stroke-width:4.21099997;stroke-linecap:butt;stroke-linejoin:miter;stroke-miterlimit:4;stroke-dasharray:none;stroke-opacity:1"
         d="m 117.51725,914.22429 c 39.65301,-11.5017 144.43369,14.63727 110.34482,37.93103 -48.69572,33.2749 25.86207,-6.89655 -63.7931,37.931 C 123.43065,1010.4054 -9.4265491,957.56652 34.758621,946.9829 96.373197,932.2245 117.51725,914.22429 117.51725,914.22429 Z"
         id="path4291"
         inkscape:connector-curvature="0"
         sodipodi:nodetypes="sssss" />
      <path
         style="fill:none;fill-rule:evenodd;stroke:#000000;stroke-width:4.21099997;stroke-linecap:round;stroke-linejoin:miter;stroke-miterlimit:4;stroke-dasharray:none;stroke-opacity:1"
         d="m 198.27586,778.22427 63.79311,-36.20689 c 5.02313,-2.85096 6.65252,14.2296 1.72414,17.24138 l -62.06897,37.93103 0,0 z"
         id="path4277"
         inkscape:connector-curvature="0"
         sodipodi:nodetypes="cssccc" />
      <path
         style="fill:none;fill-rule:evenodd;stroke:#000000;stroke-width:4.21099997;stroke-linecap:round;stroke-linejoin:miter;stroke-miterlimit:4;stroke-dasharray:none;stroke-opacity:1"
         d="m 305.17241,874.77599 63.79311,-36.20689 c 5.02313,-2.85096 6.65252,14.2296 1.72414,17.24138 l -62.06897,37.93103 0,0 z"
         id="path4275"
         inkscape:connector-curvature="0"
         sodipodi:nodetypes="cssccc" />
      <path
         style="fill:#ffffff;fill-opacity:1;fill-rule:nonzero;stroke:#000000;stroke-width:4.21135521;stroke-linecap:round;stroke-linejoin:miter;stroke-miterlimit:4;stroke-dasharray:none;stroke-opacity:1"
         d="m 189.13093,787.90579 c -0.21988,-32.22098 117.33335,-12.74728 118.6881,19.45605 1.43132,34.02352 15.31051,56.21489 4.87759,83.01249 -12.71155,32.65041 -123.22351,4.90887 -125.19156,-23.34726 -1.83435,-26.33668 1.84469,-47.05536 1.62587,-79.12128 z"
         id="path4271"
         inkscape:connector-curvature="0"
         sodipodi:nodetypes="sssss" />
      <path
         sodipodi:nodetypes="sssss"
         inkscape:connector-curvature="0"
         id="rect4267"
         d="m 175.33783,799.97476 c -0.21988,-32.22098 117.33335,-12.74728 118.6881,19.45605 1.43132,34.02352 15.31051,56.21489 4.87759,83.01249 -12.71155,32.65041 -123.22351,4.90887 -125.19156,-23.34726 -1.83435,-26.33668 1.84469,-47.05536 1.62587,-79.12128 z"
         style="fill:#cccccc;fill-opacity:1;fill-rule:nonzero;stroke:#000000;stroke-width:4.21099997;stroke-linecap:round;stroke-linejoin:miter;stroke-miterlimit:4;stroke-dasharray:none;stroke-opacity:1" />
      <path
         sodipodi:nodetypes="cssccc"
         inkscape:connector-curvature="0"
         id="path4273"
         d="m 305.17241,795.46565 63.79311,-36.20689 c 5.02313,-2.85096 6.65252,14.2296 1.72414,17.24138 l -62.06897,37.93103 0,0 z"
         style="fill:none;fill-rule:evenodd;stroke:#000000;stroke-width:4.21099997;stroke-linecap:round;stroke-linejoin:miter;stroke-miterlimit:4;stroke-dasharray:none;stroke-opacity:1" />
      <path
         sodipodi:nodetypes="sssss"
         inkscape:connector-curvature="0"
         id="rect4288"
         d="m 110.34482,901.94842 c 39.65301,-11.5017 144.43369,14.63727 110.34482,37.93103 -48.69572,33.27496 25.86207,-6.89655 -63.7931,37.93106 -40.63832,20.3191 -173.495508,-32.5199 -129.310338,-43.10348 61.61458,-14.7584 82.758618,-32.75861 82.758618,-32.75861 z"
         style="fill:#cccccc;fill-opacity:1;fill-rule:nonzero;stroke:#000000;stroke-width:4.21099997;stroke-linecap:butt;stroke-linejoin:miter;stroke-miterlimit:4;stroke-dasharray:none;stroke-opacity:1" />
    </g>
    <path
       style="fill:#cccccc;fill-opacity:1;fill-rule:nonzero;stroke:none;stroke-width:7.26034498;stroke-linecap:butt;stroke-linejoin:miter;stroke-miterlimit:4;stroke-dasharray:none;stroke-opacity:1"
       d="m 576.53374,709.85146 c -35.39013,-7.88153 -64.8455,-14.82986 -65.45638,-15.44074 -0.61087,-0.61088 -1.42018,-11.04414 -1.79846,-23.18503 l -0.68777,-22.07434 17.86828,2.43377 c 9.82756,1.33858 40.75622,5.70649 68.73036,9.70647 l 50.86207,7.2727 0.47374,27.96792 c 0.43809,25.86312 0.24346,27.95594 -2.58621,27.80861 -1.68297,-0.0876 -32.01551,-6.60783 -67.40563,-14.48936 z"
       id="path4308"
       inkscape:connector-curvature="0" />
    <path
       style="fill:#cccccc;fill-opacity:1;fill-rule:nonzero;stroke:none;stroke-width:4.21099997;stroke-linecap:butt;stroke-linejoin:miter;stroke-miterlimit:4;stroke-dasharray:none;stroke-opacity:1"
       d=""
       id="path4310"
       inkscape:connector-curvature="0" />
    <path
       style="fill:#cccccc;fill-opacity:1;fill-rule:nonzero;stroke:none;stroke-width:4.21099997;stroke-linecap:butt;stroke-linejoin:miter;stroke-miterlimit:4;stroke-dasharray:none;stroke-opacity:1"
       d="m 581.69456,729.66808 c -42.98271,-8.36238 -78.66541,-15.71936 -79.29488,-16.34884 -1.28279,-1.28278 -4.71834,-212.57504 -3.47661,-213.81678 0.73458,-0.73457 65.68277,5.1779 135.49084,12.33423 l 29.74138,3.04892 0,45.04194 c 0,24.77307 0.51411,76.59151 1.14246,115.1521 1.11341,68.32697 1.0586,70.10611 -2.15517,69.95147 -1.8137,-0.0872 -38.46531,-7.00064 -81.44802,-15.36304 z m 72.1159,-31.53153 0,-34.98427 -71.98276,-9.98045 c -39.59052,-5.48925 -73.34052,-10.35896 -75,-10.82157 -2.78815,-0.77725 -3.01724,1.38241 -3.01724,28.44388 l 0,29.285 15.94827,3.61531 c 52.48336,11.89741 130.06192,29.10241 131.89656,29.25138 1.65907,0.13465 2.15517,-7.87795 2.15517,-34.80928 z m -1.72414,-80.53297 c 0,-29.09144 -0.20051,-31.03448 -3.20259,-31.03448 -3.36892,0 -129.81614,-13.15864 -139.46982,-14.51383 l -5.60345,-0.78662 0,29.20195 c 0,22.1479 0.5206,29.23104 2.15517,29.32238 1.18534,0.0663 33.57759,4.2463 71.98276,9.28901 38.40517,5.04272 70.79741,9.25576 71.98276,9.36233 1.65149,0.14847 2.15517,-7.05924 2.15517,-30.84074 z m -0.0625,-43.53448 c -0.13638,-4.7067 -6.54359,-51.5773 -7.1309,-52.16461 -0.34522,-0.34522 -29.32053,-3.79878 -64.38958,-7.67457 -35.06904,-3.87579 -67.05931,-7.50588 -71.08948,-8.06686 l -7.32759,-1.01997 0,29.50611 0,29.50611 4.74138,0.12929 c 2.60776,0.0711 31.89655,2.68748 65.08621,5.81416 69.39061,6.53704 80.19986,7.07276 80.10996,3.97034 z"
       id="path4312"
       inkscape:connector-curvature="0" />
    <path
       style="fill:#cccccc;fill-opacity:1;fill-rule:nonzero;stroke:none;stroke-width:4.21099997;stroke-linecap:butt;stroke-linejoin:miter;stroke-miterlimit:4;stroke-dasharray:none;stroke-opacity:1"
       d="m 578.04555,632.68928 c -36.45518,-4.55519 -66.68641,-8.68644 -67.18051,-9.18054 -0.4941,-0.4941 -1.21482,-11.05529 -1.60161,-23.4693 l -0.70325,-22.57094 4.09066,0.92917 c 2.24986,0.51104 32.40962,3.85765 67.02169,7.43692 34.61207,3.57927 63.53568,7.01602 64.27471,7.63723 0.73902,0.6212 1.12695,11.56275 0.86206,24.31455 l -0.4816,23.18509 -66.28215,-8.28218 z"
       id="path4314"
       inkscape:connector-curvature="0" />
    <path
       style="fill:#cccccc;fill-opacity:1;fill-rule:nonzero;stroke:none;stroke-width:4.21099997;stroke-linecap:butt;stroke-linejoin:miter;stroke-miterlimit:4;stroke-dasharray:none;stroke-opacity:1"
       d="m 568.0346,563.62525 -59.05173,-5.29186 0,-23.16662 0,-23.16663 4.74138,0.88251 c 2.60776,0.48539 32.0154,3.85011 65.35031,7.47717 l 60.60893,6.59464 1.9611,16.44525 c 1.0786,9.04489 2.37916,18.57887 2.89013,21.18663 0.9237,4.71417 0.8763,4.7402 -8.25968,4.53607 -5.0538,-0.11292 -35.762,-2.58664 -68.24044,-5.49716 z"
       id="path4316"
       inkscape:connector-curvature="0" />
    <path
       style="fill:#b3b3b3;fill-opacity:1;fill-rule:nonzero;stroke:none;stroke-width:4.21099997;stroke-linecap:butt;stroke-linejoin:miter;stroke-miterlimit:4;stroke-dasharray:none;stroke-opacity:1"
       d="m 371.10667,785.33713 c -0.0302,-6.84137 -1.60332,-20.41896 -3.49591,-30.17241 -1.89259,-9.75345 -3.94474,-22.63487 -4.56032,-28.62538 -1.48831,-14.48334 -5.6266,-20.1719 -20.44688,-28.10658 -17.00315,-9.10337 -35.62732,-13.69499 -60.34483,-14.87746 -20.52139,-0.98173 -20.64058,-1.0117 -14.65517,-3.68499 9.08411,-4.05727 40.13163,-3.36375 57.46305,1.28358 18.28576,4.90323 32.45437,11.49894 38.80278,18.06329 4.55609,4.71106 5.62263,7.69009 7.81721,21.83468 1.39771,9.00862 3.86315,24.13793 5.47874,33.62069 3.1383,18.4203 1.86657,32.70879 -3.54763,39.85947 -2.19951,2.90495 -2.46194,1.94398 -2.51104,-9.19489 z"
       id="path4318"
       inkscape:connector-curvature="0" />
    <path
       style="fill:#ececec;fill-opacity:1;fill-rule:nonzero;stroke:none;stroke-width:4.21099997;stroke-linecap:butt;stroke-linejoin:miter;stroke-miterlimit:4;stroke-dasharray:none;stroke-opacity:1"
       d="m 172.44434,890.15403 c -8.24275,-1.78854 -17.94102,-4.19788 -21.55173,-5.35408 -13.4319,-4.30108 -33.49537,-12.39235 -32.70025,-13.18747 0.45248,-0.45247 8.06975,1.4955 16.92729,4.32884 24.11027,7.71235 41.62818,10.81321 61.26006,10.8437 15.6228,0.0243 18.91597,-0.52805 28.49575,-4.77915 23.6765,-10.50663 47.46433,-22.84771 48.31558,-25.06602 1.44272,-3.75968 21.62769,-17.19353 22.85362,-15.20993 1.96716,3.18292 -0.73751,7.69457 -7.24215,12.08056 -3.51584,2.37069 -9.5713,7.02586 -13.45657,10.34483 -3.88527,3.31896 -17.43159,11.06275 -30.10294,17.20841 l -23.03881,11.17392 -17.38652,0.43415 c -12.02701,0.30032 -22.00631,-0.56827 -32.37333,-2.81776 z"
       id="path4320"
       inkscape:connector-curvature="0" />
    <path
       style="fill:#ececec;fill-opacity:1;fill-rule:nonzero;stroke:none;stroke-width:4.21099997;stroke-linecap:butt;stroke-linejoin:miter;stroke-miterlimit:4;stroke-dasharray:none;stroke-opacity:1"
       d="m 294.87363,829.24152 c -0.83414,-5.82019 6.10376,-9.3935 16.53002,-8.51369 l 8.45527,0.7135 -9.31734,5.80081 c -11.01249,6.85618 -14.90078,7.35236 -15.66795,1.99938 z"
       id="path4322"
       inkscape:connector-curvature="0" />
    <path
       style="fill:#ececec;fill-opacity:1;fill-rule:nonzero;stroke:none;stroke-width:4.21099997;stroke-linecap:butt;stroke-linejoin:miter;stroke-miterlimit:4;stroke-dasharray:none;stroke-opacity:1"
       d="m 420.08827,766.68668 c 1.84072,-1.39225 4.16831,-2.5067 5.17241,-2.47654 1.0041,0.0302 0.31959,1.19395 -1.52114,2.58621 -1.84072,1.39225 -4.16831,2.5067 -5.17241,2.47654 -1.0041,-0.0302 -0.31959,-1.19395 1.52114,-2.58621 z"
       id="path4324"
       inkscape:connector-curvature="0" />
    <path
       style="fill:#ececec;fill-opacity:1;fill-rule:nonzero;stroke:none;stroke-width:4.21099997;stroke-linecap:butt;stroke-linejoin:miter;stroke-miterlimit:4;stroke-dasharray:none;stroke-opacity:1"
       d="m 385.1719,778.59562 c 0.5197,-6.06942 1.20522,-6.63776 23.81097,-19.74092 12.80173,-7.42037 24.29723,-13.53058 25.54556,-13.57824 1.46941,-0.0561 2.07733,1.57027 1.72413,4.6126 -0.463,3.98821 -4.19798,6.96828 -24.68348,19.69453 -13.27586,8.24739 -24.76666,15.05513 -25.53511,15.12831 -0.76845,0.0732 -1.15639,-2.67914 -0.86207,-6.11628 z"
       id="path4326"
       inkscape:connector-curvature="0" />
    <path
       style="fill:#ececec;fill-opacity:1;fill-rule:nonzero;stroke:none;stroke-width:4.21099997;stroke-linecap:butt;stroke-linejoin:miter;stroke-miterlimit:4;stroke-dasharray:none;stroke-opacity:1"
       d="m 375.93689,707.25876 c -0.15804,-1.89656 -0.35201,-4.58887 -0.43103,-5.98293 -0.13578,-2.39523 55.31906,-35.39638 59.47977,-35.39638 0.99687,0 1.56699,2.11995 1.26693,4.71101 -0.46893,4.04938 -4.5409,7.18034 -28.99383,22.2935 -15.64655,9.67037 -29.03017,17.63663 -29.74138,17.70278 -0.7112,0.0662 -1.42241,-1.43143 -1.58046,-3.32798 z"
       id="path4328"
       inkscape:connector-curvature="0" />
    <path
       style="fill:#ececec;fill-opacity:1;fill-rule:nonzero;stroke:none;stroke-width:4.21099997;stroke-linecap:butt;stroke-linejoin:miter;stroke-miterlimit:4;stroke-dasharray:none;stroke-opacity:1"
       d="m 288.43689,670.42801 c 2.57055,-2.23227 37.95276,-21.78994 39.42067,-21.78994 0.99823,0 1.81497,1.95937 1.81497,4.35416 0,3.46247 -2.2068,5.75419 -10.77587,11.19052 -9.41252,5.97143 -12.06648,6.83842 -20.97701,6.85273 -5.61063,0.009 -9.87787,-0.26435 -9.48276,-0.60747 z"
       id="path4330"
       inkscape:connector-curvature="0" />
    <path
       inkscape:connector-curvature="0"
       id="path4334"
       d="m 362.93745,443.9075 c 16.57112,-18.53099 21.34931,-39.35694 13.74175,-59.89393 -7.77044,-20.9767 -31.5691,-40.31907 -60.29616,-49.00573 -5.90261,-1.78487 -7.60362,-2.77257 -10.09613,-5.8623 -4.69399,-5.8187 -10.12908,-8.57816 -17.75448,-9.01416 -7.95148,-0.45465 -13.8643,1.37262 -18.59761,5.74733 -4.48953,4.14941 -9.47259,4.29876 -14.88947,0.44627 -4.99632,-3.5534 -8.16389,-4.54585 -14.43267,-4.522 -9.40942,0.0358 -16.69072,4.51682 -20.75692,12.77416 -1.82226,3.7005 -3.00585,4.66629 -9.68111,7.89949 -17.63739,8.54278 -32.63538,22.34354 -39.62452,36.46144 -1.83618,3.70904 -1.87987,3.73345 -1.94241,1.08553 -0.0351,-1.48988 0.85539,-6.15277 1.97907,-10.362 8.13746,-30.48242 39.053,-55.28748 80.60282,-64.6716 12.61419,-2.84895 37.30016,-3.92659 51.38701,-2.24326 49.42687,5.90635 89.2108,36.84408 95.27579,74.09063 3.00988,18.48429 -2.90056,37.1639 -17.09033,54.01299 -5.53139,6.56804 -20.26735,19.11799 -22.47744,19.14305 -0.43864,0.005 1.65513,-2.73369 4.65281,-6.08591 z"
       style="fill:#b3b3b3;fill-opacity:1;fill-rule:nonzero;stroke:none;stroke-width:16.12903214;stroke-linecap:round;stroke-linejoin:miter;stroke-miterlimit:4;stroke-dasharray:none;stroke-opacity:1" />
    <path
       style="fill:#ffffff;fill-opacity:1;fill-rule:nonzero;stroke:none;stroke-width:4.21099997;stroke-linecap:butt;stroke-linejoin:miter;stroke-miterlimit:4;stroke-dasharray:none;stroke-opacity:1"
       d="m 249.82591,465.00847 c -37.73712,-6.64427 -66.4778,-27.40695 -74.17081,-53.58205 -2.09803,-7.13844 -1.90169,-17.93037 0.46684,-25.66033 3.7849,-12.35246 13.42688,-24.7193 26.0586,-33.42286 5.81958,-4.00983 15.5273,-9.49875 16.79951,-9.49875 0.2311,0 0.71247,1.35417 1.06971,3.00926 0.97876,4.53457 3.60916,9.15621 7.05536,12.39634 5.09836,4.79349 8.79718,6.18888 16.28484,6.1435 6.02966,-0.0365 6.71296,0.1413 6.71296,1.74719 0,0.98334 1.04978,2.83766 2.33284,4.12072 2.31732,2.31732 2.32323,2.36476 0.8894,7.13384 -3.6231,12.05079 -2.3158,33.19313 3.04312,49.21499 l 2.60086,7.77592 -2.81274,-0.51074 c -20.07867,-3.64592 -41.76501,-19.14017 -57.62553,-41.17175 -3.28636,-4.56502 -4.96958,-5.68894 -7.22424,-4.82374 -2.97829,1.14287 -1.45687,5.39028 4.7721,13.32251 12.90459,16.43324 29.17078,29.44803 43.90786,35.13125 7.93063,3.05838 20.67485,5.58478 28.17189,5.58478 6.39616,0 19.7987,-2.34172 27.31481,-4.77251 8.68975,-2.81034 24.60773,-11.12951 33.95824,-17.74748 8.44786,-5.97911 27.17539,-23.44446 27.16112,-25.33054 -0.01,-1.32026 -2.56716,-4.00132 -3.81644,-4.00132 -0.49397,0 -5.18419,4.0625 -10.42271,9.02778 -11.37458,10.7813 -21.30869,18.05286 -33.25494,24.34195 -14.13297,7.44028 -29.03688,11.66685 -38.53719,10.92866 l -4.0786,-0.31691 -2.25457,-6.01852 c -5.75803,-15.37096 -7.51128,-34.42439 -4.40916,-47.91666 1.44157,-6.26997 1.70656,-6.71319 4.01551,-6.71643 2.89727,-0.004 8.36314,-3.10328 8.98465,-5.09443 0.23753,-0.76097 0.62237,-1.9962 0.85521,-2.74495 0.35959,-1.15635 1.02189,-1.0897 4.39815,0.44263 6.07947,2.7592 15.69064,2.51564 21.85002,-0.5537 8.34006,-4.15603 14.06923,-13.7509 14.06923,-23.5623 0,-5.72 0.33814,-5.74649 11.90064,-0.93233 13.4349,5.59376 22.72512,11.60042 31.67205,20.4778 12.87001,12.76997 18.29176,25.67195 17.28701,41.13741 -1.91939,29.54376 -33.10214,55.14274 -76.13157,62.49899 -14.27828,2.44099 -34.84174,2.41693 -48.89403,-0.0572 z m 68.79553,-62.70297 c 5.57489,-2.75491 7.13517,-5.77271 3.8842,-7.51257 -2.25733,-1.20808 -14.36842,3.62012 -14.84213,5.91696 -0.98681,4.78452 3.2549,5.40217 10.95793,1.59561 z m -101.79098,-3.01212 c 2.03,-1.08642 2.36439,-3.89712 0.63357,-5.32539 -1.98952,-1.64174 -12.55163,-4.83811 -14.06639,-4.25684 -0.82337,0.31596 -1.44287,1.64884 -1.44287,3.10441 0,2.29761 0.62024,2.78601 6.25,4.92163 3.4375,1.304 6.38156,2.40326 6.54236,2.4428 0.16079,0.0396 1.09829,-0.35943 2.08333,-0.88661 z m 99.60147,-6.54081 c 8.07923,-4.12462 14.97294,-7.95633 15.31934,-8.51492 1.06892,-1.72362 -1.02946,-4.35613 -3.47227,-4.35613 -2.07242,0 -25.89145,11.60859 -28.8399,14.05559 -2.04061,1.69356 -0.8194,6.31478 1.66876,6.31478 0.34901,0 7.24484,-3.37469 15.32407,-7.49932 z m -91.79197,-3.05725 c 0,-2.55672 -0.62486,-2.96932 -12.96296,-8.55958 -14.34028,-6.49743 -17.5926,-7.00772 -17.5926,-2.76029 0,2.52344 0.66822,2.96374 12.96297,8.54135 14.3938,6.52988 17.59259,7.03508 17.59259,2.77852 z m 78.85171,-4.84851 c 5.52045,-3.88946 12.00989,-7.95196 14.42098,-9.02778 4.6553,-2.07717 6.20518,-4.42561 4.37562,-6.6301 -2.53559,-3.05519 -8.17176,-0.60162 -23.34275,10.16171 -6.25733,4.43937 -9.95371,7.67158 -9.95371,8.70376 0,1.89058 1.70713,3.86415 3.34246,3.86415 0.61612,0 5.63696,-3.18228 11.1574,-7.07174 z m -79.48976,-6.99569 c 0.2339,-2.02587 -0.28691,-2.78512 -2.77778,-4.04951 -1.68611,-0.85588 -5.07975,-2.98744 -7.54142,-4.73679 -5.32221,-3.78215 -8.34876,-3.81081 -8.77823,-0.0831 -0.25816,2.24078 0.52102,3.05623 6.89854,7.21952 8.22455,5.36904 11.71498,5.84112 12.19889,1.6499 z"
       id="path4336"
       inkscape:connector-curvature="0" />
    <path
       style="fill:#ffffff;fill-opacity:1;fill-rule:nonzero;stroke:none;stroke-width:4.21099997;stroke-linecap:butt;stroke-linejoin:miter;stroke-miterlimit:4;stroke-dasharray:none;stroke-opacity:1"
       d="m 512.94506,348.55457 c -10.17516,-1.66261 -17.70136,-3.61898 -27.05586,-7.03295 -9.37377,-3.421 -19.86974,-3.51246 -35.16417,-0.30641 l -2.61864,0.54893 2.60301,-3.93341 c 2.14823,-3.2462 2.59948,-4.91998 2.58278,-9.5802 -0.0269,-7.50645 -2.67095,-13.92935 -10.81757,-26.27776 -8.88287,-13.4644 -9.91944,-15.9659 -9.94394,-23.99716 -0.0942,-30.8857 32.31946,-59.37171 76.83151,-67.52155 12.01229,-2.19936 36.13586,-2.19936 48.14815,0 45.15265,8.26713 76.85185,36.515 76.85185,68.48442 0,14.56214 -5.09846,26.58864 -16.33604,38.53425 -13.91809,14.79503 -32.50991,24.55327 -56.62785,29.72213 -11.82256,2.53376 -36.95225,3.23896 -48.45323,1.35971 z"
       id="path4338"
       inkscape:connector-curvature="0" />
    <path
       style="fill:#ffffff;fill-opacity:1;fill-rule:nonzero;stroke:none;stroke-width:4.21099997;stroke-linecap:butt;stroke-linejoin:miter;stroke-miterlimit:4;stroke-dasharray:none;stroke-opacity:1"
       d="m 146.91806,402.27372 c -17.11445,-8.33145 -17.5114,-8.41167 -26.57407,-5.36994 -6.76555,2.27073 -8.71192,2.49925 -21.33366,2.50477 -13.186493,0.006 -14.29765,-0.13916 -21.971568,-2.86578 C 65.951617,392.60338 57.027868,387.0738 48.289657,378.72845 39.208248,370.05534 34.154802,363.08279 28.714006,351.71873 9.8297929,312.27571 17.203516,264.74389 46.797619,235.14978 c 14.776988,-14.77698 32.611972,-22.33652 52.675674,-22.3271 20.040617,0.009 37.063287,7.38098 52.381937,22.68371 29.68168,29.65083 36.7506,78.67105 17.03279,118.11587 -5.11955,10.2415 -11.13644,17.90452 -17.00699,21.65986 -5.74068,3.67228 -8.38231,7.04274 -7.55724,9.64231 0.30779,0.96977 3.36318,5.33667 6.78975,9.70422 6.76253,8.61961 10.00564,13.62363 8.82877,13.62254 -0.41074,-3.9e-4 -6.27165,-2.69025 -13.02425,-5.97747 z"
       id="path4340"
       inkscape:connector-curvature="0" />
    <path
       style="fill:#ffffff;fill-opacity:1;fill-rule:nonzero;stroke:none;stroke-width:4.21099997;stroke-linecap:butt;stroke-linejoin:miter;stroke-miterlimit:4;stroke-dasharray:none;stroke-opacity:1"
       d="m 342.26863,526.92136 c -12.46067,-3.45644 -17.90796,-15.20869 -10.80114,-23.30292 7.71583,-8.78784 21.57685,-10.18266 31.28735,-3.14841 4.87098,3.52852 6.86098,7.47957 6.29523,12.49887 -0.6049,5.3667 -3.52721,9.10249 -9.27651,11.85882 -6.11146,2.92995 -11.96575,3.63014 -17.50493,2.09364 z"
       id="path4342"
       inkscape:connector-curvature="0" />
    <path
       inkscape:connector-curvature="0"
       id="path4344"
       d="m 407.18365,523.55997 c -3.10378,-0.40208 -5.70794,-0.7766 -5.78702,-0.83227 -0.079,-0.0556 0.85039,-2.32635 2.06548,-5.04596 1.2151,-2.71962 2.88962,-7.367 3.72116,-10.32751 1.52953,-5.44559 3.03898,-15.94816 2.5389,-17.66537 -0.16121,-0.55355 0.14223,-1.27108 0.74449,-1.76051 2.02279,-1.64382 0.59444,-5.02005 -2.1238,-5.02005 -0.95869,0 -4.76924,1.91831 -10.99637,5.53579 -7.9158,4.59849 -15.77496,8.75913 -22.22824,11.76766 -1.04571,0.48751 -1.29691,0.33709 -2.51098,-1.50364 -1.8445,-2.7966 -5.96566,-6.30773 -9.35012,-7.96611 l -2.81148,-1.37762 7.57648,-9.14005 c 4.16706,-5.02703 9.1606,-11.20321 11.09672,-13.72487 4.36898,-5.69023 5.42014,-6.75657 6.66041,-6.75657 1.54358,0 3.12864,-1.75905 3.15287,-3.49894 0.0142,-1.01973 0.5783,-2.15309 1.61236,-3.23941 3.54368,-3.72282 0.26221,-8.28856 -3.86296,-5.3748 -1.98712,1.40359 -4.48218,1.00344 -6.8172,-1.09332 l -1.95921,-1.75931 4.99333,-4.46178 4.99332,-4.46177 7.90125,7.23919 c 20.16921,18.47919 32.63153,36.85259 38.23646,56.37265 1.96716,6.85092 3.1241,13.68206 2.41852,14.28015 -1.30276,1.10432 -21.63439,10.66036 -22.56654,10.60647 -0.58003,-0.0335 -3.59404,-0.38996 -6.69783,-0.79205 z"
       style="fill:#999999;fill-opacity:1;fill-rule:nonzero;stroke:none;stroke-width:0.49851298;stroke-linecap:round;stroke-linejoin:miter;stroke-miterlimit:4;stroke-dasharray:none;stroke-opacity:1" />
    <path
       style="fill:#ffffff;fill-opacity:1;fill-rule:nonzero;stroke:none;stroke-width:4.21099997;stroke-linecap:butt;stroke-linejoin:miter;stroke-miterlimit:4;stroke-dasharray:none;stroke-opacity:1"
       d="m 227.17386,527.48245 c -13.32834,-3.36052 -15.48995,-16.09508 -3.64518,-21.4747 9.14408,-4.15304 20.51163,-0.37731 23.64047,7.85217 2.93074,7.70843 -9.59793,16.24405 -19.99529,13.62253 z"
       id="path4346"
       inkscape:connector-curvature="0" />
    <path
       inkscape:connector-curvature="0"
       id="path4348"
       d="m 635.66832,500.68791 c -81.65705,-8.14915 -134.08728,-14.06776 -134.79735,-15.21667 -0.54208,-0.87711 -1.78895,-0.82223 -3.97783,0.17509 -2.51414,1.14552 -7.90561,1.01923 -25.49922,-0.59727 -35.29724,-3.24312 -32.07927,-2.31685 -36.43405,-10.48725 -5.16389,-9.68845 -17.63916,-24.99013 -28.6335,-35.12074 l -9.18656,-8.46484 4.63011,-6.81897 c 3.23472,-4.76392 5.44313,-6.83298 7.32785,-6.86547 4.96409,-0.0856 311.69281,20.64487 312.14438,21.09644 0.2449,0.2449 -10.58671,14.93244 -24.07023,32.63898 -22.55355,29.61726 -24.82442,32.20922 -28.3754,32.38765 -2.12295,0.10667 -17.03064,-1.12046 -33.1282,-2.72695 z"
       style="fill:#cccccc;fill-opacity:1;fill-rule:nonzero;stroke:none;stroke-width:6.09756088;stroke-linecap:round;stroke-linejoin:miter;stroke-miterlimit:4;stroke-dasharray:none;stroke-opacity:1" />
    <path
       inkscape:connector-curvature="0"
       id="path4350"
       d="m 672.961,623.07046 0,-112.55115 23.47561,-32.07548 c 12.91159,-17.64152 23.65167,-31.9198 23.86684,-31.72952 0.21518,0.19029 -0.19435,50.4748 -0.91006,111.74336 l -1.30128,111.39739 -20.91058,31.09756 c -11.50082,17.10366 -21.65532,31.90113 -22.56556,32.88328 -1.39456,1.50473 -1.65497,-15.92405 -1.65497,-110.76544 z"
       style="fill:#999999;fill-opacity:1;fill-rule:nonzero;stroke:none;stroke-width:5;stroke-linecap:round;stroke-linejoin:miter;stroke-miterlimit:4;stroke-dasharray:none;stroke-opacity:1" />
    <path
       inkscape:connector-curvature="0"
       id="path4354"
       d="m 585.69456,727.66808 c -42.98271,-8.36238 -78.66541,-15.71936 -79.29488,-16.34884 -1.28279,-1.28278 -4.71834,-212.57504 -3.47661,-213.81678 0.73458,-0.73457 65.68277,5.1779 135.49084,12.33423 l 29.74138,3.04892 0,45.04194 c 0,24.77307 0.51411,76.59151 1.14246,115.1521 1.11341,68.32697 1.0586,70.10611 -2.15517,69.95147 -1.8137,-0.0872 -38.46531,-7.00064 -81.44802,-15.36304 z m 72.1159,-31.53153 0,-34.98427 -71.98276,-9.98045 c -39.59052,-5.48925 -73.34052,-10.35896 -75,-10.82157 -2.78815,-0.77725 -3.01724,1.38241 -3.01724,28.44388 l 0,29.285 15.94827,3.61531 c 52.48336,11.89741 130.06192,29.10241 131.89656,29.25138 1.65907,0.13465 2.15517,-7.87795 2.15517,-34.80928 z m -1.72414,-80.53297 c 0,-29.09144 -0.20051,-31.03448 -3.20259,-31.03448 -3.36892,0 -129.81614,-13.15864 -139.46982,-14.51383 l -5.60345,-0.78662 0,29.20195 c 0,22.1479 0.5206,29.23104 2.15517,29.32238 1.18534,0.0663 33.57759,4.2463 71.98276,9.28901 38.40517,5.04272 70.79741,9.25576 71.98276,9.36233 1.65149,0.14847 2.15517,-7.05924 2.15517,-30.84074 z m -0.0625,-43.53448 c -0.13638,-4.7067 -6.54359,-51.5773 -7.1309,-52.16461 -0.34522,-0.34522 -29.32053,-3.79878 -64.38958,-7.67457 -35.06904,-3.87579 -67.05931,-7.50588 -71.08948,-8.06686 l -7.32759,-1.01997 0,29.50611 0,29.50611 4.74138,0.12929 c 2.60776,0.0711 31.89655,2.68748 65.08621,5.81416 69.39061,6.53704 80.19986,7.07276 80.10996,3.97034 z"
       style="fill:#cccccc;fill-opacity:1;fill-rule:nonzero;stroke:none;stroke-width:4.21099997;stroke-linecap:butt;stroke-linejoin:miter;stroke-miterlimit:4;stroke-dasharray:none;stroke-opacity:1" />
    <path
       inkscape:connector-curvature="0"
       id="path4356"
       d="m 256.32686,623.79797 0,-49.78879 3.64289,0.53467 3.64289,0.53466 0.32052,42.00815 0.32053,42.00816 29.57317,-21.08394 29.57317,-21.08394 0,-15.04004 0,-15.04004 3.96341,0.38215 3.96342,0.38214 0,15.79902 0,15.79902 -37.15592,27.18879 c -20.43575,14.95383 -37.31075,27.18878 -37.49999,27.18878 -0.18925,0 -0.34409,-22.40495 -0.34409,-49.78879 z"
       style="fill:#999999;fill-opacity:1;fill-rule:nonzero;stroke:none;stroke-width:5;stroke-linecap:round;stroke-linejoin:miter;stroke-miterlimit:4;stroke-dasharray:none;stroke-opacity:1" />
    <path
       style="fill:#ffffff;fill-opacity:1;fill-rule:nonzero;stroke:none;stroke-width:4.21099997;stroke-linecap:butt;stroke-linejoin:miter;stroke-miterlimit:4;stroke-dasharray:none;stroke-opacity:1"
       d="m 293.83615,516.09097 -15.13568,-1.96871 4.64317,-1.09408 c 5.72487,-1.34897 11.61307,-5.14142 14.01388,-9.02602 4.9777,-8.05408 2.41495,-18.71815 -5.68154,-23.64192 l -2.64529,-1.60869 7.6805,-0.54202 c 21.05209,-1.48567 46.50597,-9.7465 63.93687,-20.75015 l 3.667,-2.31487 3.25884,3.25884 3.25884,3.25884 -2.5368,3.08188 c -1.39525,1.69504 -7.81395,8.74157 -14.2638,15.65895 l -11.72698,12.57705 -5.5736,0.49364 c -12.96783,1.14851 -23.56536,11.15345 -23.5879,22.26892 -0.006,3.03666 1.19415,3.015 -19.30751,0.34834 z"
       id="path4358"
       inkscape:connector-curvature="0" />
    <path
       style="fill:#ffffff;fill-opacity:1;fill-rule:nonzero;stroke:none;stroke-width:4.21099997;stroke-linecap:butt;stroke-linejoin:miter;stroke-miterlimit:4;stroke-dasharray:none;stroke-opacity:1"
       d="m 253.01812,506.6401 -7.17592,-0.90534 0,-8.0748 c 0,-6.88842 2.59362,-21.45849 4.08538,-22.95025 0.20758,-0.20758 3.81631,-0.0774 8.0194,0.2892 l 7.64197,0.66662 -2.41543,1.75951 c -9.86674,7.18743 -8.5656,21.88713 2.53662,28.65747 l 2.81724,1.71801 -4.16667,-0.12754 c -2.29166,-0.0702 -7.39583,-0.53494 -11.34259,-1.03288 z"
       id="path4360"
       inkscape:connector-curvature="0" />
  </g>
</svg>
