<?xml version="1.0" encoding="UTF-8" standalone="no"?>
<!-- Created with Inkscape (http://www.inkscape.org/) -->

<svg
   xmlns:dc="http://purl.org/dc/elements/1.1/"
   xmlns:cc="http://creativecommons.org/ns#"
   xmlns:rdf="http://www.w3.org/1999/02/22-rdf-syntax-ns#"
   xmlns:svg="http://www.w3.org/2000/svg"
   xmlns="http://www.w3.org/2000/svg"
   xmlns:xlink="http://www.w3.org/1999/xlink"
   xmlns:sodipodi="http://sodipodi.sourceforge.net/DTD/sodipodi-0.dtd"
   xmlns:inkscape="http://www.inkscape.org/namespaces/inkscape"
   width="210mm"
   height="297mm"
   viewBox="0 0 744.09448819 1052.3622047"
   id="svg2"
   version="1.1"
   inkscape:version="0.91 r13725"
   sodipodi:docname="te.svg">
  <defs
     id="defs4">
    <linearGradient
       inkscape:collect="always"
       id="linearGradient4335">
      <stop
         style="stop-color:#ffffff;stop-opacity:1;"
         offset="0"
         id="stop4337" />
      <stop
         style="stop-color:#ffffff;stop-opacity:0;"
         offset="1"
         id="stop4339" />
    </linearGradient>
    <linearGradient
       inkscape:collect="always"
       id="linearGradient4291">
      <stop
         style="stop-color:#000000;stop-opacity:1;"
         offset="0"
         id="stop4293" />
      <stop
         style="stop-color:#000000;stop-opacity:0;"
         offset="1"
         id="stop4295" />
    </linearGradient>
    <linearGradient
       inkscape:collect="always"
       xlink:href="#linearGradient4291"
       id="linearGradient4297"
       x1="336.14713"
       y1="1071.849"
       x2="338.58295"
       y2="548.14154"
       gradientUnits="userSpaceOnUse" />
    <linearGradient
       inkscape:collect="always"
       xlink:href="#linearGradient4335"
       id="linearGradient4341"
       x1="195.31387"
       y1="909.40631"
       x2="562.56266"
       y2="909.40631"
       gradientUnits="userSpaceOnUse" />
  </defs>
  <sodipodi:namedview
     id="base"
     pagecolor="#ffffff"
     bordercolor="#666666"
     borderopacity="1.0"
     inkscape:pageopacity="0.0"
     inkscape:pageshadow="2"
     inkscape:zoom="0.43852551"
     inkscape:cx="137.2562"
     inkscape:cy="497.14937"
     inkscape:document-units="px"
     inkscape:current-layer="layer1"
     showgrid="false"
     inkscape:window-width="1237"
     inkscape:window-height="755"
     inkscape:window-x="43"
     inkscape:window-y="1"
     inkscape:window-maximized="1" />
  <metadata
     id="metadata7">
    <rdf:RDF>
      <cc:Work
         rdf:about="">
        <dc:format>image/svg+xml</dc:format>
        <dc:type
           rdf:resource="http://purl.org/dc/dcmitype/StillImage" />
        <dc:title></dc:title>
      </cc:Work>
    </rdf:RDF>
  </metadata>
  <g
     inkscape:label="Layer 1"
     inkscape:groupmode="layer"
     id="layer1">
    <rect
       y="-7.2320137"
       x="-2.4358487"
       height="1071.7734"
       width="755.1131"
       id="rect4281"
       style="fill:#000080;fill-opacity:1;fill-rule:nonzero;stroke:none;stroke-width:10;stroke-linecap:round;stroke-linejoin:miter;stroke-miterlimit:4;stroke-dasharray:none;stroke-opacity:1" />
    <rect
       style="fill:url(#linearGradient4297);fill-opacity:1;fill-rule:nonzero;stroke:none;stroke-width:10;stroke-linecap:round;stroke-linejoin:miter;stroke-miterlimit:4;stroke-dasharray:none;stroke-opacity:1"
       id="rect4265"
       width="755.1131"
       height="1071.7734"
       x="-2.4358487"
       y="-7.2320137" />
    <ellipse
       style="fill:#000000;fill-opacity:1;fill-rule:nonzero;stroke:#000000;stroke-width:10.57056999;stroke-linecap:round;stroke-linejoin:miter;stroke-miterlimit:4;stroke-dasharray:none;stroke-opacity:1"
       id="path4181"
       cx="367.18167"
       cy="411.29813"
       rx="297.42957"
       ry="374.83539" />
    <path
       style="fill:#ffffff;fill-opacity:1;fill-rule:nonzero;stroke:#000000;stroke-width:10;stroke-linecap:round;stroke-linejoin:miter;stroke-miterlimit:4;stroke-dasharray:none;stroke-opacity:1"
       d="m 626.07017,462.39729 c 0,49.02319 -5.25432,113.99729 -27.01849,152.84031 -71.12052,126.93047 -108.81246,192.60831 -217.63814,192.60831 -100.89839,0 -158.99244,-61.38785 -226.18536,-172.8083 C 127.90149,589.72405 114,529.89508 114,470.36221 114,277.06255 216.26699,112.39729 362.07017,112.39729 c 145.80317,0 264,156.70034 264,350 z"
       id="path4136"
       inkscape:connector-curvature="0"
       sodipodi:nodetypes="sssssss" />
    <path
       style="fill:none;fill-rule:evenodd;stroke:#000000;stroke-width:10;stroke-linecap:round;stroke-linejoin:miter;stroke-miterlimit:4;stroke-dasharray:none;stroke-opacity:1"
       d="m 309.34338,604.11661 c 58,38 34.75352,18.32075 57.72431,19.20801 23.54324,0.90937 34.41603,-15.20802 34.41603,-15.20802"
       id="path4138"
       inkscape:connector-curvature="0"
       sodipodi:nodetypes="csc" />
    <path
       style="fill:none;fill-rule:evenodd;stroke:#000000;stroke-width:10;stroke-linecap:round;stroke-linejoin:miter;stroke-miterlimit:4;stroke-dasharray:none;stroke-opacity:1"
       d="m 347.37846,464.94368 c -5.18873,122.80273 -5.89964,104.69789 -6,104 l 0,0 4,0"
       id="path4140"
       inkscape:connector-curvature="0"
       sodipodi:nodetypes="cccc" />
    <path
       style="fill:none;fill-rule:evenodd;stroke:#000000;stroke-width:9.49882698;stroke-linecap:butt;stroke-linejoin:miter;stroke-miterlimit:4;stroke-dasharray:none;stroke-opacity:1"
       d="m 297.09072,690.52742 43.12725,9.77099 44.36752,1.17447 50.25363,-6.07286"
       id="path4142"
       inkscape:connector-curvature="0"
       sodipodi:nodetypes="cccc" />
    <g
       id="g4148"
       transform="translate(1.6892255,56.686734)">
      <path
         sodipodi:nodetypes="cccc"
         inkscape:connector-curvature="0"
         id="path4144"
         d="m 414.62155,395.81082 c 36.07159,-27.23941 64.88076,-23.68767 95.72431,-9.10276 l 21.61906,10.2406 c -28.99907,5.13464 -60.97784,32.04057 -117.34337,-1.13784 z"
         style="fill:none;fill-rule:evenodd;stroke:#000000;stroke-width:10;stroke-linecap:round;stroke-linejoin:miter;stroke-miterlimit:4;stroke-dasharray:none;stroke-opacity:1" />
      <circle
         r="15.929832"
         cy="393.54987"
         cx="472.20572"
         id="path4146"
         style="fill:#000000;fill-opacity:1;fill-rule:nonzero;stroke:#000000;stroke-width:10;stroke-linecap:round;stroke-linejoin:miter;stroke-miterlimit:4;stroke-dasharray:none;stroke-opacity:1" />
    </g>
    <g
       id="g4152"
       transform="matrix(-1,0,0,1,708.13664,54.100269)">
      <path
         style="fill:none;fill-rule:evenodd;stroke:#000000;stroke-width:10;stroke-linecap:round;stroke-linejoin:miter;stroke-miterlimit:4;stroke-dasharray:none;stroke-opacity:1"
         d="m 414.62155,395.81082 c 36.07159,-27.23941 64.88076,-23.68767 95.72431,-9.10276 l 21.61906,10.2406 c -28.99907,5.13464 -60.97784,32.04057 -117.34337,-1.13784 z"
         id="path4154"
         inkscape:connector-curvature="0"
         sodipodi:nodetypes="cccc" />
      <circle
         style="fill:#000000;fill-opacity:1;fill-rule:nonzero;stroke:#000000;stroke-width:10;stroke-linecap:round;stroke-linejoin:miter;stroke-miterlimit:4;stroke-dasharray:none;stroke-opacity:1"
         id="circle4156"
         cx="472.20572"
         cy="393.54987"
         r="15.929832" />
    </g>
    <path
       style="fill:none;fill-rule:evenodd;stroke:#000000;stroke-width:10;stroke-linecap:butt;stroke-linejoin:miter;stroke-miterlimit:4;stroke-dasharray:none;stroke-opacity:1"
       d="m 410.17562,451.37446 c 38.56346,-16.97919 45.11596,-44.77999 133.12788,-9.10276 l 0,3.41354"
       id="path4158"
       inkscape:connector-curvature="0"
       sodipodi:nodetypes="ccc" />
    <path
       sodipodi:nodetypes="ccc"
       inkscape:connector-curvature="0"
       id="path4160"
       d="m 299.96277,449.92584 c -38.56346,-16.97919 -45.11596,-44.77999 -133.12788,-9.10276 l 0,3.41354"
       style="fill:none;fill-rule:evenodd;stroke:#000000;stroke-width:10;stroke-linecap:butt;stroke-linejoin:miter;stroke-miterlimit:4;stroke-dasharray:none;stroke-opacity:1" />
    <path
       style="fill:none;fill-rule:evenodd;stroke:#000000;stroke-width:10;stroke-linecap:butt;stroke-linejoin:miter;stroke-miterlimit:4;stroke-dasharray:none;stroke-opacity:1"
       d="m 315.1831,709.56005 c 39.0214,12.42708 68.8173,6.40315 98.99252,1.13785"
       id="path4162"
       inkscape:connector-curvature="0"
       sodipodi:nodetypes="cc" />
    <path
       style="fill:none;fill-rule:evenodd;stroke:#000000;stroke-width:10;stroke-linecap:butt;stroke-linejoin:miter;stroke-miterlimit:4;stroke-dasharray:none;stroke-opacity:1"
       d="m 581.91794,643.54643 c 12.62135,-35.47207 -15.1916,-61.45435 -15.74501,-117.95533 -0.67164,-68.57187 -3.29476,-143.44522 -56.92896,-192.63689 -33.0844,-30.34402 -71.97596,-69.47476 -104.11122,-121.54937 0,0 -39.36281,34.39173 -63.68864,41.45587 -23.87376,6.93286 -50.3181,-6.32109 -74.5749,-0.8779 -25.48385,5.71853 -70.44121,34.3102 -70.44121,34.3102 -11.60845,33.16996 -32.43991,46.3964 -40.67632,72.07224 -7.90032,24.62812 -3.55758,67.95031 -5.53481,87.63806 -3.52718,35.12092 -14.43557,58.62215 -15.92704,79.63277 -4.34707,61.23832 6.89279,73.71405 6.89279,73.71405"
       id="path4175"
       inkscape:connector-curvature="0"
       sodipodi:nodetypes="csscsscsssc" />
    <path
       style="fill:none;fill-rule:evenodd;stroke:#000000;stroke-width:10;stroke-linecap:butt;stroke-linejoin:miter;stroke-miterlimit:4;stroke-dasharray:none;stroke-opacity:1"
       d="m 571.61251,564.10985 c 0,0 -52.09778,173.54084 -38.24717,260.0575 3.15025,19.67778 22.50911,34.00062 26.72958,53.47693 12.20216,56.30962 -8.33007,182.65692 -8.33007,182.65692"
       id="path4177"
       inkscape:connector-curvature="0"
       sodipodi:nodetypes="cssc" />
    <path
       style="fill:none;fill-rule:evenodd;stroke:#000000;stroke-width:10;stroke-linecap:butt;stroke-linejoin:miter;stroke-miterlimit:4;stroke-dasharray:none;stroke-opacity:1"
       d="m 138.9336,516.47547 c 0,0 -6.76417,147.42394 2.46117,220.27003 4.09604,32.34362 23.32174,94.98463 23.32174,94.98463 0,0 19.49885,39.84827 23.04908,61.42823 8.51187,51.73915 -5.16715,157.21904 -5.16715,157.21904"
       id="path4179"
       inkscape:connector-curvature="0"
       sodipodi:nodetypes="cscsc" />
    <path
       style="fill:#000000;fill-opacity:1;fill-rule:nonzero;stroke:#000000;stroke-width:19.84765625;stroke-linecap:round;stroke-linejoin:miter;stroke-miterlimit:4;stroke-dasharray:none;stroke-opacity:1"
       d="m 582.96286,584.69116 c -4.84132,-17.7297 -8.91662,-37.45396 -9.39278,-45.46058 -0.46261,-7.77858 -1.73308,-31.27947 -2.82325,-52.22423 -2.49293,-47.89494 -7.76286,-77.37051 -18.17857,-101.67566 -2.58835,-6.03992 -3.11672,-9.40082 -1.70057,-10.81697 4.25433,-4.25432 1.91048,-9.1167 -6.87695,-14.26649 -4.9123,-2.87879 -8.93145,-6.12309 -8.93145,-7.20955 0,-1.08646 -18.10017,-20.42748 -40.2226,-42.98006 -40.20272,-40.9844 -56.97135,-60.76191 -76.83661,-90.62382 -5.80951,-8.73297 -10.79673,-16.17201 -11.08274,-16.5312 -0.286,-0.35919 -7.07356,4.6177 -15.08346,11.05975 -19.68249,15.82988 -31.41983,23.63121 -44.70403,29.71291 -10.77037,4.93084 -11.92804,5.04977 -33.18204,3.40896 -37.72268,-2.91219 -47.88652,-2.17136 -65.68716,4.78787 -8.73297,3.41418 -24.74743,11.35602 -35.58769,17.64852 -19.23643,11.16627 -19.87965,11.77482 -26.79434,25.34983 -3.89662,7.6499 -11.17845,19.70735 -16.18185,26.79433 -21.88919,31.00462 -23.27431,36.1904 -25.44213,95.25321 -1.49823,40.82004 -2.18789,46.78901 -8.02622,69.4668 -3.51293,13.64526 -7.0136,31.95473 -7.77927,40.6877 l -1.39212,15.87812 -2.61588,-15.87812 c -7.94299,-48.21312 -3.84197,-121.3714 9.95774,-177.63653 28.21335,-115.03335 92.25335,-196.11053 176.38188,-223.30644 22.62232,-7.31303 62.27002,-9.14301 87.50755,-4.039 110.41281,22.32978 195.65609,131.43459 217.49588,278.37789 2.5348,17.05476 3.44984,35.23154 3.37595,67.06111 -0.1441,62.06963 -6.70595,103.71702 -21.23479,134.77503 l -6.41084,13.70431 -8.55166,-31.31769 z"
       id="path4183"
       inkscape:connector-curvature="0" />
    <path
       style="fill:#000000;fill-opacity:1;fill-rule:nonzero;stroke:#000000;stroke-width:19.84765625;stroke-linecap:round;stroke-linejoin:miter;stroke-miterlimit:4;stroke-dasharray:none;stroke-opacity:1"
       d="m 548.95265,684.82764 c 0,-4.83436 12.73585,-60.4344 20.22349,-88.28836 l 2.13417,-7.93907 3.69916,12.90098 c 4.09061,14.26614 4.71616,27.29808 1.79865,37.47082 -1.78193,6.21326 -25.34382,47.8741 -27.07587,47.8741 -0.42878,0 -0.7796,-0.90831 -0.7796,-2.01847 z"
       id="path4187"
       inkscape:connector-curvature="0" />
    <path
       style="fill:none;fill-rule:evenodd;stroke:#000000;stroke-width:10;stroke-linecap:butt;stroke-linejoin:miter;stroke-miterlimit:4;stroke-dasharray:none;stroke-opacity:1"
       d="m 654.97267,466.85633 c 0,0 -18.64962,139.98381 -18.0856,210.36033 0.42029,52.44258 14.74418,88.65438 35.83521,136.67072 10.97107,24.97702 22.70677,56.44569 34.48271,81.05346 23.54873,49.20897 27.15831,161.39086 27.15831,161.39086 l -1.98477,-7.939"
       id="path4189"
       inkscape:connector-curvature="0"
       sodipodi:nodetypes="cssscc" />
    <path
       style="fill:none;fill-rule:evenodd;stroke:#000000;stroke-width:10;stroke-linecap:butt;stroke-linejoin:miter;stroke-miterlimit:4;stroke-dasharray:none;stroke-opacity:1"
       d="m 81.375393,445.02391 c 0,0 23.114387,190.52327 17.41333,285.79427 -3.254084,54.37937 -4.58769,105.84792 -17.413331,158.79324 -12.860368,53.08869 -59.54297,158.78128 -59.54297,158.78128 l -3.969531,17.8629 -5.954297,-3.9696 172.674616,-11.9086"
       id="path4191"
       inkscape:connector-curvature="0"
       sodipodi:nodetypes="cssccc" />
    <path
       style="fill:none;fill-rule:evenodd;stroke:#000000;stroke-width:10;stroke-linecap:butt;stroke-linejoin:miter;stroke-opacity:1;stroke-miterlimit:4;stroke-dasharray:none"
       d="m 553.74962,1056.3317 184.58321,-5.9543"
       id="path4193"
       inkscape:connector-curvature="0" />
    <path
       style="fill:#000000;fill-opacity:1;fill-rule:nonzero;stroke:#000000;stroke-width:19.84765625;stroke-linecap:round;stroke-linejoin:miter;stroke-miterlimit:4;stroke-dasharray:none;stroke-opacity:1"
       d="m 26.959281,1054.544 c 0,-0.8493 8.120545,-21.1854 18.045654,-45.1912 44.672229,-108.04885 52.540979,-144.11226 59.406555,-272.26733 1.96997,-36.77191 0.1088,-124.70182 -3.05889,-144.51573 -0.85401,-5.34184 -0.57324,-5.13607 2.72964,2.0005 10.64944,23.01039 15.40287,32.59478 20.29148,40.91396 5.01747,8.53843 5.48137,11.28621 6.70169,39.69531 1.72445,40.14521 4.43164,66.2242 9.14337,88.08008 6.65291,30.86023 17.32939,66.85151 25.32372,85.36831 17.27761,40.0191 17.22181,39.70716 17.21294,96.23775 -0.008,49.19901 -3.41841,97.05695 -7.07842,99.32275 -0.95673,0.5923 -32.80003,3.0977 -70.7629,5.5676 -37.962867,2.4699 -71.032969,4.905 -73.489116,5.4114 -2.456148,0.5064 -4.465723,0.2259 -4.465723,-0.6234 z"
       id="path4195"
       inkscape:connector-curvature="0" />
    <path
       style="fill:none;fill-rule:evenodd;stroke:#000000;stroke-width:10;stroke-linecap:butt;stroke-linejoin:miter;stroke-opacity:1;stroke-miterlimit:4;stroke-dasharray:none"
       d="m 142.90313,445.02391 29.77148,448.55704"
       id="path4199"
       inkscape:connector-curvature="0" />
    <path
       style="fill:#000000;fill-opacity:1;fill-rule:nonzero;stroke:#000000;stroke-width:10.60264778;stroke-linecap:round;stroke-linejoin:miter;stroke-miterlimit:4;stroke-dasharray:none;stroke-opacity:1"
       d="m 145.7418,603.926 c -0.93471,-2.19274 -1.74896,-5.41816 -1.80945,-7.1676 -0.73825,-21.35068 -1.03516,-50.68721 -0.50765,-50.15971 0.69889,0.6989 4.96396,60.36672 4.35831,60.97236 -0.18796,0.18796 -1.1065,-1.45231 -2.04121,-3.64505 z"
       id="path4203"
       inkscape:connector-curvature="0" />
    <path
       style="fill:#000000;fill-opacity:1;fill-rule:nonzero;stroke:#000000;stroke-width:10.60264778;stroke-linecap:round;stroke-linejoin:miter;stroke-miterlimit:4;stroke-dasharray:none;stroke-opacity:1"
       d="m 155.28215,776.17644 c -5.93109,-24.33143 -8.66513,-39.97499 -10.23248,-58.54786 -1.38863,-16.45501 -2.74262,-52.4831 -1.9724,-52.4831 0.29929,0 2.61521,2.95249 5.1465,6.56109 l 4.60235,6.5611 3.93645,58.91025 c 2.16505,32.40064 3.83534,59.01523 3.71175,59.14355 -0.12359,0.12831 -2.46007,-8.93695 -5.19217,-20.14503 z"
       id="path4205"
       inkscape:connector-curvature="0" />
    <path
       style="fill:none;fill-rule:evenodd;stroke:#000000;stroke-width:10;stroke-linecap:butt;stroke-linejoin:miter;stroke-miterlimit:4;stroke-dasharray:none;stroke-opacity:1"
       d="m 222.29376,734.7997 c 19.50672,72.11315 26.80089,144.22631 19.84765,216.33946 l 0,0"
       id="path4207"
       inkscape:connector-curvature="0"
       sodipodi:nodetypes="ccc" />
    <path
       style="fill:none;fill-rule:evenodd;stroke:#000000;stroke-width:10;stroke-linecap:butt;stroke-linejoin:miter;stroke-miterlimit:4;stroke-dasharray:none;stroke-opacity:1"
       d="m 502.14572,760.60165 c -12.81268,52.47504 -16.29047,109.61753 -7.93907,172.67461"
       id="path4209"
       inkscape:connector-curvature="0"
       sodipodi:nodetypes="cc" />
    <path
       style="fill:none;fill-rule:evenodd;stroke:#000000;stroke-width:10;stroke-linecap:butt;stroke-linejoin:miter;stroke-miterlimit:4;stroke-dasharray:none;stroke-opacity:1"
       d="m 242.12618,861.55048 c -138.9336,47.63438 -127.02501,53.58868 -127.02501,53.58868"
       id="path4211"
       inkscape:connector-curvature="0" />
    <path
       style="fill:none;fill-rule:evenodd;stroke:#000000;stroke-width:10;stroke-linecap:butt;stroke-linejoin:miter;stroke-opacity:1;stroke-miterlimit:4;stroke-dasharray:none"
       d="M 496.19142,853.88564 C 658.9422,963.04775 658.9422,957.09345 658.9422,957.09345"
       id="path4213"
       inkscape:connector-curvature="0" />
    <path
       style="fill:#000000;fill-opacity:1;fill-rule:nonzero;stroke:#000000;stroke-width:19.84765625;stroke-linecap:round;stroke-linejoin:miter;stroke-miterlimit:4;stroke-dasharray:none;stroke-opacity:1"
       d="m 182.04915,855.41344 -7.20033,-17.3667 -4.22232,-65.49727 c -5.58781,-86.6789 -6.37039,-79.02317 6.65603,-65.11421 5.93682,6.33905 17.47152,16.88441 25.63265,23.43413 l 14.83844,11.9086 5.26902,21.83242 c 4.79377,19.86317 11.20405,59.16102 13.49798,82.74858 l 0.90563,9.31226 -22.69645,8.05444 c -12.48304,4.42995 -23.32282,8.05445 -24.08838,8.05445 -0.76556,0 -4.63208,-7.81502 -8.59227,-17.3667 z"
       id="path4217"
       inkscape:connector-curvature="0" />
    <path
       style="fill:#000000;fill-opacity:1;fill-rule:nonzero;stroke:#000000;stroke-width:19.84765625;stroke-linecap:round;stroke-linejoin:miter;stroke-miterlimit:4;stroke-dasharray:none;stroke-opacity:1"
       d="m 526.16457,866.62731 c -14.49836,-9.80175 -27.35243,-17.20841 -28.56459,-16.45925 -4.80319,2.96853 5.87865,-77.66633 11.33396,-85.55765 1.50929,-2.18324 6.17713,-7.86813 10.37297,-12.63308 l 7.62882,-8.66355 -0.83786,35.4978 c -1.05195,44.56857 0.47279,52.50984 14.27914,74.36991 8.57847,13.58259 15.12537,26.9189 15.12537,30.81103 0,2.02359 -5.29128,-1.10834 -29.33781,-17.36521 z"
       id="path4221"
       inkscape:connector-curvature="0" />
    <path
       style="fill:#faffff;fill-opacity:1;fill-rule:nonzero;stroke:none;stroke-width:10;stroke-linecap:round;stroke-linejoin:miter;stroke-miterlimit:4;stroke-dasharray:none;stroke-opacity:1"
       d="m 354.21373,800.6444 c -13.82116,-1.88406 -23.44522,-4.15654 -36.30648,-8.57287 -51.42187,-17.65732 -93.69279,-58.25842 -144.86942,-139.14664 l -12.06363,-19.06741 -5.15376,-77.38811 -5.15375,-77.38811 2.29024,-12.90365 c 1.95372,-11.00757 2.401,-18.00847 3.04398,-47.64424 0.41455,-19.10732 1.07573,-37.07984 1.46929,-39.93892 0.67108,-4.8752 0.86468,-5.16089 3.1145,-4.59623 1.71897,0.43144 5.27033,-0.82938 12.52931,-4.44819 14.28011,-7.11905 23.91494,-9.42868 39.41174,-9.44767 14.70516,-0.018 20.32203,0.83013 49.13312,7.41914 27.80446,6.3588 36.493,7.68983 38.62837,5.91764 2.16567,-1.79735 2.05538,-7.68771 -0.16557,-8.8428 -0.95537,-0.49687 -4.86369,-1.43064 -8.68515,-2.07504 -3.82147,-0.6444 -15.44288,-3.12519 -25.82536,-5.51288 -22.97158,-5.28285 -33.78393,-7.16414 -46.13729,-8.02765 -17.25505,-1.20616 -36.66962,2.80391 -51.83545,10.70656 -3.42703,1.78576 -6.5776,3.40281 -7.00126,3.59345 -1.39058,0.62573 4.16938,-12.85357 7.65798,-18.5656 1.87735,-3.07388 6.76921,-10.27885 10.87079,-16.01105 9.44515,-13.20014 15.55802,-23.47349 19.07551,-32.0585 l 2.76463,-6.7475 11.96351,-6.97019 c 15.91287,-9.27115 37.88729,-19.99665 47.6967,-23.28028 11.07273,-3.70652 21.04848,-4.07675 40.69612,-1.51037 27.26215,3.561 38.31606,2.56704 53.59977,-4.81963 9.31118,-4.50012 27.16418,-16.24095 39.45506,-25.94716 4.77665,-3.77217 8.88583,-6.85849 9.13153,-6.85849 0.2457,0 3.63443,4.68307 7.53053,10.40681 21.07158,30.9562 38.96431,51.73413 76.76983,89.14895 l 30.89012,30.57088 -6.94812,-0.79323 c -10.65951,-1.21693 -29.96949,-0.65706 -39.7955,1.15382 -4.86273,0.89617 -17.72265,3.65616 -28.57761,6.13328 -10.85496,2.47712 -22.90447,5.03432 -26.77668,5.68266 -6.01927,1.00782 -7.25972,1.56962 -8.55249,3.87337 -1.61995,2.8868 -0.93176,5.08325 2.21447,7.06784 2.07344,1.30789 11.35214,-0.22721 35.70235,-5.90671 28.44898,-6.6355 35.44919,-7.7016 50.40034,-7.67576 13.35734,0.0231 24.06768,1.8839 31.53585,5.47903 3.77868,1.81903 12.99726,20.65296 18.55259,37.9037 8.99249,27.92401 11.85605,49.62438 13.96103,105.79855 1.0339,27.59068 1.92105,40.6921 3.19115,47.12611 l 1.75915,8.91146 -5.71202,20.86619 c -9.85159,35.98806 -21.11252,87.35245 -26.17987,119.41414 l -1.77019,11.20017 -6.86196,9.14789 c -36.14985,48.19242 -70.36427,69.5631 -120.29015,75.13441 -12.19315,1.36066 -38.61299,1.09259 -50.37785,-0.51117 z m 37.9705,-80.97542 c 7.91589,-1.08993 16.17919,-2.30926 18.36288,-2.70961 l 3.97036,-0.7279 -0.22935,-5.31853 c -0.12614,-2.92519 -0.34947,-5.41119 -0.4963,-5.52446 -0.14682,-0.11326 -6.29692,0.82983 -13.66688,2.09576 -18.0931,3.10784 -36.60221,4.32779 -49.69428,3.27539 -10.28221,-0.82654 -25.44651,-3.67642 -31.19817,-5.8632 -1.51816,-0.5772 -2.83046,-0.9253 -2.91623,-0.77355 -0.0858,0.15176 -0.87031,2.60284 -1.74342,5.44684 l -1.58747,5.17092 5.28635,1.53678 c 22.49805,6.54037 43.90835,7.5228 73.91251,3.39156 z m 17.72365,-15.92898 26.16065,-3.15701 -0.66622,-5.02221 c -0.36642,-2.76222 -0.74876,-5.10178 -0.84965,-5.19901 -0.10088,-0.0973 -10.90338,1.15511 -24.00555,2.78301 -22.41148,2.78453 -25.20337,2.92398 -47.14794,2.35498 l -23.32583,-0.60481 -20.84435,-4.78527 c -15.54305,-3.56825 -21.02449,-4.4812 -21.55265,-3.58967 -1.04978,1.77207 -2.13699,9.44179 -1.3384,9.44179 0.37867,0 9.70405,2.10595 20.72307,4.67988 18.91698,4.41882 21.0589,4.71242 38.39745,5.26324 10.09959,0.32084 20.59621,0.67531 23.32583,0.78771 2.72962,0.1124 16.73523,-1.21628 31.12359,-2.95263 z M 358.3442,630.72466 c 1.494,-0.94827 6.45932,-1.81781 13.24963,-2.32029 9.42401,-0.6974 11.83126,-1.26485 18.20359,-4.29105 8.28699,-3.93548 17.27563,-12.06372 17.27563,-15.62201 0,-2.88047 -2.73402,-5.83281 -5.4015,-5.83281 -1.16384,0 -4.31591,2.07804 -7.00459,4.61784 -7.38072,6.97205 -13.52037,9.36756 -26.46375,10.32539 -7.89177,0.584 -11.76326,1.33429 -14.14938,2.74213 l -3.28493,1.93816 -4.85148,-2.45304 c -5.80579,-2.93555 -13.62941,-7.62821 -25.66718,-15.39531 -4.89755,-3.16004 -9.89061,-5.74552 -11.09571,-5.74552 -5.07266,0 -7.02334,6.07243 -3.07733,9.57964 2.57142,2.28549 21.299,14.28929 29.89275,19.16034 10.56423,5.98793 16.70784,6.89311 22.37425,3.29653 z m -10.13389,-57.38483 c 2.53755,-1.66266 3.14463,-6.45077 1.03943,-8.19793 -0.93105,-0.7727 -1.08464,-3.6245 -0.60793,-11.28815 2.30025,-36.97911 4.16299,-90.41567 3.20514,-91.94581 -0.58044,-0.92722 -2.43445,-1.82378 -4.12005,-1.99234 -5.56909,-0.55692 -5.73435,0.36748 -7.6061,42.54648 -0.93406,21.04832 -2.15367,43.38155 -2.71025,49.62942 -1.64166,18.42828 -1.57038,20.7545 0.68723,22.42691 2.24046,1.6597 6.54672,1.15782 10.11253,-1.17858 z M 491.52228,471.66765 c 4.68391,-1.01982 15.40387,-4.08329 23.82212,-6.80772 8.41824,-2.72442 19.66088,-5.74606 24.98363,-6.71474 5.32276,-0.96868 9.67774,-2.04502 9.67774,-2.39188 0,-0.34685 -6.97913,-3.93131 -15.50917,-7.96547 -8.53004,-4.03415 -15.06469,-7.48298 -14.52141,-7.66407 0.54326,-0.18109 5.62406,1.41438 11.29066,3.54547 5.66661,2.13111 10.45181,3.48899 10.63378,3.01752 0.18198,-0.47146 1.85697,-0.85721 3.7222,-0.85721 3.26589,0 3.39135,-0.13972 3.39135,-3.77682 l 0,-3.77681 -13.64809,-5.075 c -25.65881,-9.54113 -43.01207,-13.4328 -59.80344,-13.41158 -17.38785,0.0219 -26.3312,2.96675 -48.15462,15.85597 -6.54334,3.86458 -13.58764,7.82721 -15.65402,8.80584 -3.34684,1.58504 -3.69045,2.08254 -3.14704,4.55662 0.37399,1.70284 0.19547,2.77731 -0.46146,2.77731 -2.87823,0 -0.27278,2.30802 7.61369,6.74453 15.135,8.51416 30.09022,13.5536 45.90721,15.4693 6.14199,0.74391 21.09552,-0.4237 29.85687,-2.33126 z M 254.21446,470.5974 c 10.19216,-1.61836 21.87121,-5.51889 32.58645,-10.88313 5.43985,-2.72328 10.15652,-4.95142 10.48149,-4.95142 0.32496,0 1.70384,-0.96774 3.06417,-2.15053 1.62936,-1.41672 2.15935,-2.52884 1.55321,-3.25921 -0.52401,-0.63138 -0.55318,-1.70239 -0.0678,-2.48781 0.64648,-1.04602 -1.58499,-2.74989 -9.23821,-7.05396 -5.54978,-3.12114 -13.66386,-7.74191 -18.03125,-10.26837 -15.55292,-8.99712 -27.17178,-11.97345 -43.67389,-11.18764 -16.81424,0.80068 -35.65977,5.43246 -59.37696,14.59342 l -10.60051,4.09454 0,3.76775 c 0,3.7415 0.0318,3.77134 4.56758,4.28258 3.41171,0.38455 6.04416,-0.0852 10.40245,-1.85609 10.63897,-4.32299 8.53642,-2.399 -3.9596,3.62334 -6.77346,3.26442 -12.08385,6.16683 -11.80086,6.44982 0.28299,0.283 5.15492,1.41042 10.82651,2.50539 5.67159,1.09498 17.01195,4.18124 25.2008,6.85838 13.93841,4.5568 24.8012,7.3895 31.76283,8.28283 6.30458,0.80902 20.13362,0.6198 26.30359,-0.35989 z"
       id="path4227"
       inkscape:connector-curvature="0" />
    <path
       style="fill:#cccccc;fill-rule:evenodd;stroke:none;stroke-width:1px;stroke-linecap:butt;stroke-linejoin:miter;stroke-opacity:1"
       d="m 178.66589,461.77218 c 52.27605,20.95506 86.80945,16.15255 122.08836,-7.94071 0,0 -37.84684,34.59809 -61.54048,35.73317 -22.18183,1.06266 -60.54788,-27.79246 -60.54788,-27.79246 z"
       id="path4229"
       inkscape:connector-curvature="0"
       sodipodi:nodetypes="ccsc" />
    <path
       sodipodi:nodetypes="ccsc"
       inkscape:connector-curvature="0"
       id="path4231"
       d="m 533.01991,465.74253 c -52.27605,20.95506 -86.80945,16.15255 -122.08836,-7.94071 0,0 37.84684,34.59809 61.54048,35.73317 22.18183,1.06266 60.54788,-27.79246 60.54788,-27.79246 z"
       style="fill:#cccccc;fill-rule:evenodd;stroke:none;stroke-width:1px;stroke-linecap:butt;stroke-linejoin:miter;stroke-opacity:1" />
    <path
       style="fill:#e6e6e6;fill-opacity:1;fill-rule:evenodd;stroke:none;stroke-width:1px;stroke-linecap:butt;stroke-linejoin:miter;stroke-opacity:1"
       d="m 380.16131,532.24594 c 0.82088,23.15681 -4.18858,42.98199 -21.83694,55.58495 0,0 29.61974,-4.22371 34.74059,-15.88142 5.59666,-12.74088 -12.90365,-39.70353 -12.90365,-39.70353 z"
       id="path4233"
       inkscape:connector-curvature="0"
       sodipodi:nodetypes="ccsc" />
    <path
       style="fill:#e0d7d7;fill-opacity:1;fill-rule:evenodd;stroke:none;stroke-width:1px;stroke-linecap:butt;stroke-linejoin:miter;stroke-opacity:1"
       d="m 324.57638,476.661 c 0,0 -22.41851,47.47875 -18.85918,68.48859 1.01603,5.99738 12.90364,12.90364 12.90364,12.90364 z"
       id="path4235"
       inkscape:connector-curvature="0"
       sodipodi:nodetypes="cscc" />
    <path
       style="fill:#e0d7d7;fill-opacity:1;fill-rule:evenodd;stroke:none;stroke-width:1px;stroke-linecap:butt;stroke-linejoin:miter;stroke-opacity:1"
       d="m 321.59861,724.80807 c 34.09006,3.75724 58.80164,1.26217 85.36259,0 0,0 -30.17373,12.89566 -47.64424,11.91106 -12.45249,-0.70179 -37.71835,-11.91106 -37.71835,-11.91106 z"
       id="path4237"
       inkscape:connector-curvature="0"
       sodipodi:nodetypes="ccsc" />
    <path
       style="fill:#e0d7d7;fill-opacity:1;fill-rule:evenodd;stroke:none;stroke-width:1px;stroke-linecap:butt;stroke-linejoin:miter;stroke-opacity:1"
       d="m 450.63509,405.19464 -43.67389,33.748 c 0,0 37.62401,-10.47279 46.65165,-25.77421 2.52748,-4.28395 -2.97776,-7.97379 -2.97776,-7.97379 z"
       id="path4239"
       inkscape:connector-curvature="0"
       sodipodi:nodetypes="ccsc" />
    <path
       sodipodi:nodetypes="ccsc"
       inkscape:connector-curvature="0"
       id="path4241"
       d="m 268.96765,415.12052 35.42812,22.82953 c 0,0 -30.52048,-7.08453 -37.84367,-17.43549 -2.05029,-2.89797 2.41555,-5.39404 2.41555,-5.39404 z"
       style="fill:#e0d7d7;fill-opacity:1;fill-rule:evenodd;stroke:none;stroke-width:1px;stroke-linecap:butt;stroke-linejoin:miter;stroke-opacity:1" />
    <path
       style="fill:#e0d7d7;fill-opacity:1;fill-rule:evenodd;stroke:none;stroke-width:1px;stroke-linecap:butt;stroke-linejoin:miter;stroke-opacity:1"
       d="m 540.63893,630.40502 c -8.0653,25.5158 -27.80561,49.08576 -40.94304,73.75621 -13.47032,25.29555 -20.49894,51.66472 -41.87582,75.64252 0,0 48.32505,-38.45114 63.33207,-66.57987 13.84366,-25.94813 19.48679,-82.81886 19.48679,-82.81886 z"
       id="path4243"
       inkscape:connector-curvature="0"
       sodipodi:nodetypes="cscsc" />
    <path
       style="fill:#e0d7d7;fill-opacity:1;fill-rule:evenodd;stroke:none;stroke-width:1px;stroke-linecap:butt;stroke-linejoin:miter;stroke-opacity:1"
       d="m 170.50941,591.17484 c 19.43794,59.10334 35.17821,84.9276 50.34088,105.55344 0,0 -45.08038,-37.01947 -53.58867,-63.33207 -4.34287,-13.43068 3.24779,-42.22137 3.24779,-42.22137 z"
       id="path4245"
       inkscape:connector-curvature="0"
       sodipodi:nodetypes="ccsc" />
    <path
       style="fill:none;fill-rule:evenodd;stroke:none;stroke-width:1px;stroke-linecap:butt;stroke-linejoin:miter;stroke-opacity:1"
       d="m 662.55087,482.37359 c -28.33591,280.91894 43.5364,378.12282 87.69055,526.14331 l -7.30754,-17.05091"
       id="path4251"
       inkscape:connector-curvature="0"
       sodipodi:nodetypes="ccc" />
    <path
       style="fill:none;fill-rule:evenodd;stroke:#000000;stroke-width:1px;stroke-linecap:butt;stroke-linejoin:miter;stroke-opacity:1"
       d="m 90.126405,1057.2339 550.501825,-2.4358"
       id="path4259"
       inkscape:connector-curvature="0" />
    <path
       style="fill:#ffffff;fill-opacity:1;fill-rule:nonzero;stroke:none;stroke-width:10;stroke-linecap:round;stroke-linejoin:miter;stroke-miterlimit:4;stroke-dasharray:none;stroke-opacity:1"
       d="m 187.75431,1051.1992 c 5.73521,-18.0701 10.80123,-131.66022 6.81889,-152.89288 l -2.36514,-12.61027 21.43623,-7.48549 c 11.78992,-4.11702 22.1333,-7.48549 22.98527,-7.48549 0.85197,0 1.18069,18.03113 0.73049,40.06918 -0.77798,38.08405 -0.58245,40.13078 3.94679,41.31281 2.62093,0.68401 5.36126,0.64288 6.08962,-0.0914 0.72836,-0.73427 1.2514,-27.82006 1.16229,-60.19064 -0.16503,-59.95609 0.0208,-58.05404 -12.59502,-128.88627 -1.42625,-8.00774 1.75701,-8.6109 8.11677,-1.53796 7.78898,8.66243 33.51187,26.02366 49.96297,33.72165 28.0997,13.14875 50.66717,17.72348 87.43105,17.72348 44.73972,0 70.4293,-6.9887 102.10008,-27.77575 l 8.31991,-5.46076 -1.69018,8.41114 c -4.80771,23.92499 -6.94707,60.73248 -5.6607,97.39122 0.77709,22.14471 2.13661,42.14912 3.02116,44.45424 0.92813,2.41863 4.18516,4.19112 7.70138,4.19112 5.15939,0 5.87541,-0.8672 4.67269,-5.6593 -0.78123,-3.11261 -2.16964,-19.67427 -3.08537,-36.80369 l -1.66498,-31.14439 31.02134,20.36171 31.02134,20.36171 -1.21897,45.0632 c -0.97471,36.03345 -7.15295,104.31372 -9.60212,106.12022 -0.28368,0.2093 -81.42908,1.0798 -180.3231,1.9346 -176.1575,1.5225 -179.77738,1.4598 -178.33269,-3.092 z"
       id="path4271"
       inkscape:connector-curvature="0" />
    <path
       style="fill:#e0d7d7;fill-opacity:1;fill-rule:evenodd;stroke:none;stroke-width:1px;stroke-linecap:butt;stroke-linejoin:miter;stroke-opacity:1"
       d="m 578.10812,954.31315 c -26.37294,63.28135 -102.92181,71.36925 -170.50942,89.31445 0,0 95.60014,5.3201 138.03143,-12.9912 21.83389,-9.4224 53.58869,-47.09309 53.58869,-47.09309 z"
       id="path4249"
       inkscape:connector-curvature="0"
       sodipodi:nodetypes="ccscc" />
    <path
       style="fill:#e0d7d7;fill-opacity:1;fill-rule:evenodd;stroke:none;stroke-width:1px;stroke-linecap:butt;stroke-linejoin:miter;stroke-opacity:1"
       d="m 277.68677,797.41004 c 0,0 42.70652,36.73295 53.58867,61.70817 6.08883,13.97424 -2.89811,32.35493 4.8717,45.46917 15.46103,26.09585 74.69936,51.96478 74.69936,51.96478 0,0 32.31096,-29.74489 45.46918,-63.33207 7.43264,-18.97221 19.48674,-92.56225 19.48674,-92.56225 l -66.57982,24.35848 -63.33206,4.8717 z"
       id="path4247"
       inkscape:connector-curvature="0"
       sodipodi:nodetypes="csscscccc" />
    <path
       style="fill:#000000;fill-opacity:1;fill-rule:nonzero;stroke:#000000;stroke-width:19.84765625;stroke-linecap:round;stroke-linejoin:miter;stroke-miterlimit:4;stroke-dasharray:none;stroke-opacity:1"
       d="m 559.55764,1046.8793 c 2.1802,-7.2339 7.28078,-57.88046 9.20082,-91.36018 2.18109,-38.03155 0.0522,-72.96781 -5.27393,-86.54726 -1.82472,-4.65231 -6.79925,-13.64139 -11.05451,-19.97573 -11.53751,-17.17461 -13.59785,-23.69846 -14.82385,-46.93808 -1.25126,-23.7187 2.48409,-71.39453 6.30542,-80.47854 1.37763,-3.27486 9.78602,-14.43917 18.68531,-24.80957 27.64422,-32.21397 52.56935,-73.4356 66.889,-110.62226 3.04156,-7.89862 5.91432,-13.97692 6.38391,-13.50733 0.4696,0.4696 -0.30127,14.97041 -1.71302,32.22403 -1.41176,17.25361 -2.57637,47.00024 -2.58802,66.10361 -0.0339,55.53201 4.70831,73.3103 44.471,166.72031 30.24288,71.04622 34.29891,81.90928 39.27656,105.19259 4.16468,19.48057 9.14929,56.38383 11.43736,84.67581 l 1.31027,16.2013 -10.66122,1.0916 c -5.86367,0.6003 -29.41725,1.5777 -52.3413,2.1719 -22.92404,0.5943 -56.29591,1.6531 -74.15972,2.353 -31.28041,1.2256 -32.43771,1.1335 -31.34408,-2.4952 z"
       id="path4197"
       inkscape:connector-curvature="0" />
    <path
       style="fill:#000000;fill-opacity:1;fill-rule:evenodd;stroke:#000000;stroke-width:1px;stroke-linecap:butt;stroke-linejoin:miter;stroke-opacity:1"
       d="m 151.99408,522.64025 c 15.08811,107.99955 35.60039,167.18151 58.69079,203.16041 L 123.40114,621.96312 Z"
       id="path4309"
       inkscape:connector-curvature="0"
       sodipodi:nodetypes="cccc" />
    <path
       style="fill:#e0d7d7;fill-opacity:1;fill-rule:evenodd;stroke:none;stroke-width:1px;stroke-linecap:butt;stroke-linejoin:miter;stroke-opacity:1"
       d="m 320.60602,709.3237 96.28106,-0.39704 -59.5553,3.97035 z"
       id="path4313"
       inkscape:connector-curvature="0" />
    <path
       style="fill:#e0d7d7;fill-rule:evenodd;stroke:none;stroke-width:1px;stroke-linecap:butt;stroke-linejoin:miter;stroke-opacity:1;fill-opacity:1"
       d="m 333.50967,687.08971 35.73317,1.98518 26.79989,-5.95553 -26.79989,0 z"
       id="path4315"
       inkscape:connector-curvature="0" />
    <path
       style="fill:#000000;fill-rule:evenodd;stroke:#000000;stroke-width:1px;stroke-linecap:butt;stroke-linejoin:miter;stroke-opacity:1"
       d="m 394.41263,387.86266 c 0,0 35.30896,-11.04081 53.58868,-12.86128 19.21012,-1.91313 38.70306,-0.114 57.87576,2.14354 10.855,1.27815 32.15321,6.43064 32.15321,6.43064 0,0 -17.68484,-19.60498 -41.28522,-23.71116 -16.90922,-2.942 -58.48494,0.0636 -74.20203,6.95922 -11.14252,4.88864 -28.1304,21.03904 -28.1304,21.03904 z"
       id="path4317"
       inkscape:connector-curvature="0"
       sodipodi:nodetypes="csscssc" />
    <path
       sodipodi:nodetypes="csscssc"
       inkscape:connector-curvature="0"
       id="path4319"
       d="m 305.88243,392.41404 c 0,0 -35.30896,-11.04081 -53.58868,-12.86128 -19.21012,-1.91313 -38.70306,-0.114 -57.87576,2.14354 -10.855,1.27815 -32.15321,6.43064 -32.15321,6.43064 0,0 17.68484,-19.60498 41.28522,-23.71116 16.90922,-2.942 58.48494,0.0636 74.20203,6.95922 11.14252,4.88864 28.1304,21.03904 28.1304,21.03904 z"
       style="fill:#000000;fill-rule:evenodd;stroke:#000000;stroke-width:1px;stroke-linecap:butt;stroke-linejoin:miter;stroke-opacity:1" />
    <path
       style="fill:#ffffff;fill-opacity:1;fill-rule:nonzero;stroke:none;stroke-width:10;stroke-linecap:round;stroke-linejoin:miter;stroke-miterlimit:4;stroke-dasharray:none;stroke-opacity:1"
       d="m 338.38766,799.6094 c -49.21144,-12.72376 -90.40282,-44.94723 -131.96332,-103.23318 -19.00935,-26.6594 -18.32246,-30.61776 1.91456,-11.03316 22.2741,21.556 24.15282,21.92109 10.71796,2.08271 -9.11305,-13.45663 -27.84647,-53.22225 -35.0042,-74.30378 -6.11582,-18.01282 -9.50068,-22.89359 -9.50068,-13.69943 0,9.5261 -2.10532,1.86236 -7.48162,-27.23443 -7.7506,-41.94659 -10.66159,-81.02193 -7.73867,-103.8792 2.73989,-21.42599 4.35188,-47.69381 4.43962,-72.3447 0.0451,-12.67334 0.82217,-17.6902 2.74237,-17.70521 1.47369,-0.0115 7.98471,-2.49398 14.46894,-5.51659 6.48423,-3.02261 16.61249,-5.92485 22.50725,-6.4494 l 10.71773,-0.95375 -9.7974,2.82604 c -12.00414,3.46257 -27.02216,12.10516 -33.98307,19.55662 -6.09336,6.52277 -4.86236,6.71152 14.84259,2.27587 7.66318,-1.72501 26.96676,-3.75872 42.89685,-4.51935 27.81735,-1.32823 30.05284,-1.11038 56.47694,5.50366 15.13223,3.78764 27.96288,6.43688 28.51256,5.88719 0.54969,-0.54968 -3.45621,-4.71601 -8.90199,-9.2585 l -9.90142,-8.25907 6.01373,-1.09283 c 4.20873,-0.76482 6.01373,-2.37326 6.01373,-5.35887 0,-3.73518 -3.86768,-5.15295 -31.08143,-11.39344 -48.82764,-11.19685 -72.65221,-10.54517 -103.6735,2.83582 -6.49366,2.80103 -2.70756,-5.97073 12.48835,-28.93339 7.41179,-11.20004 15.925,-25.22938 18.91824,-31.17633 4.91546,-9.76603 7.42613,-11.91167 25.93819,-22.167 11.27278,-6.2449 27.51407,-13.79565 36.09177,-16.77944 15.36554,-5.34498 15.96487,-5.38513 40.59076,-2.7193 13.74722,1.48818 29.4921,2.19889 34.98862,1.57935 12.29188,-1.38547 31.5009,-11.1765 51.94901,-26.47893 8.51011,-6.36859 15.87933,-11.57925 16.37601,-11.57925 0.49668,0 8.54816,10.36941 17.89216,23.04313 20.71434,28.09583 51.74518,62.6499 76.4934,85.17844 10.15018,9.23981 18.45351,17.36661 18.45184,18.05956 -0.002,0.69295 -8.92418,1.34509 -19.82781,1.44919 -13.58822,0.12973 -29.90162,2.3471 -51.85722,7.0486 -31.80192,6.80995 -38.8284,9.45716 -36.236,13.65177 0.74231,1.20106 -2.40326,5.34257 -6.99013,9.20337 -4.58684,3.86079 -7.79755,7.5713 -7.13488,8.24559 0.6627,0.67428 12.58189,-1.64734 26.48715,-5.15916 34.41891,-8.69261 65.24579,-8.69557 107.08256,-0.0103 11.83904,2.45777 11.85111,2.46851 16.4663,14.65486 8.49093,22.42022 12.6645,49.11508 14.97672,95.79362 1.22637,24.75797 3.11661,51.22878 4.20054,58.82403 1.71055,11.98611 1.26765,16.31042 -3.35435,32.7493 -7.53275,26.79151 -16.98028,68.50559 -23.35557,103.12272 -5.28942,28.72102 -5.77568,30.05435 -15.63461,42.87094 -28.90099,37.5713 -60.13161,58.73816 -98.73723,66.92016 -23.26486,4.9307 -66.15111,3.91268 -89.50135,-2.12457 z M 490.2787,761.90093 c 35.94799,-34.06595 46.10846,-53.32371 53.81589,-102.00034 4.41795,-27.90195 4.21983,-29.87583 -1.69566,-16.89258 -2.68578,5.89475 -11.47215,21.32829 -19.52524,34.29675 -8.05312,12.96846 -20.65376,36.11877 -28.00148,51.44513 -7.34769,15.32636 -16.86961,33.08142 -21.15979,39.45569 -10.51637,15.62504 -10.29295,15.20475 -8.08303,15.20475 1.07338,0 12.16557,-9.67923 24.64931,-21.5094 z m -94.5143,-25.8405 c 7.89809,-2.28388 14.79939,-4.86309 15.33624,-5.73154 0.53683,-0.86846 -18.22294,-1.579 -41.68839,-1.579 -23.46546,0 -42.66536,0.2282 -42.66645,0.50712 -0.004,1.11222 16.6976,7.46226 26.79235,10.18637 12.21824,3.29716 21.77239,2.53172 42.22625,-3.38295 z m 9.63951,-13.00254 c 15.11918,-2.31454 15.43838,-2.49425 16.0766,-9.05243 0.60471,-6.21402 1.33746,-6.76746 10.27794,-7.76282 7.17291,-0.79858 9.8195,-2.08599 10.38287,-5.05066 0.41583,-2.18839 -0.0579,-4.76869 -1.05261,-5.73397 -0.99478,-0.9653 -13.38383,-0.28934 -27.53124,1.50213 -31.30196,3.96374 -61.04511,2.80104 -88.77841,-3.47051 -16.17982,-3.65886 -20.53286,-4.01613 -21.93853,-1.80053 -3.38137,5.32965 -1.74994,7.97603 6.21902,10.08804 23.4782,6.22242 32.1684,7.46797 61.62698,8.83287 l 32.1532,1.48975 -35.36852,-0.54202 c -19.45269,-0.2981 -37.89194,-1.22142 -40.97612,-2.05178 -4.85467,-1.30705 -5.75007,-0.76439 -6.66881,4.04166 -0.95166,4.9783 -0.15148,5.80234 7.75114,7.98224 22.43345,6.18814 44.54876,6.62236 77.82649,1.52803 z m -13.28191,-32.74152 10.71773,-2.98232 -18.4416,-0.19163 c -24.0046,-0.24949 -45.97022,2.0288 -42.25756,4.38299 4.51964,2.86591 38.2711,2.04947 49.98143,-1.20902 z m -14.53936,-56.99276 c 14.66692,-2.11548 23.91808,-6.12735 30.5538,-13.24992 8.46287,-9.08384 3.95647,-17.85157 -5.65955,-11.01132 -13.66886,9.72324 -17.23105,11.41651 -24.03925,11.42712 -3.98955,0.006 -10.94262,1.11649 -15.45124,2.46731 -7.93791,2.37826 -8.81926,2.07798 -27.83012,-9.48228 -19.47515,-11.84258 -25.56084,-13.22637 -25.56084,-5.8121 0,2.46799 6.15022,7.79655 17.12255,14.83502 20.98314,13.46012 25.34531,15.34286 32.17903,13.88868 2.94738,-0.62718 11.35591,-2.00531 18.68562,-3.06251 z m 10.94227,-47.52404 c 12.25172,-5.83784 14.71579,-12.18836 10.23955,-26.38989 -1.85798,-5.89476 -5.52602,-14.09382 -8.15116,-18.22015 l -4.77301,-7.50241 -1.42964,15.15888 c -1.59032,16.86273 -5.5646,26.32842 -15.57175,37.08774 l -6.72656,7.23213 8.57419,-1.476 c 4.7158,-0.81179 12.74308,-3.46243 17.83838,-5.8903 z M 353.6756,578.1329 c 1.26938,-0.87641 2.22004,-8.22949 2.14355,-16.57967 -0.0756,-8.25266 0.68402,-33.57331 1.68803,-56.26811 l 1.82549,-41.26328 -5.42245,0 c -4.97072,0 -5.51536,0.93752 -6.53773,11.25362 -2.09765,21.16626 -5.4735,100.86347 -4.34945,102.6822 1.37195,2.21988 7.54405,2.3214 10.65256,0.17513 l 0,1.1e-4 z m -25.0588,-55.39241 c 1.46897,-21.93648 2.1873,-40.36804 1.59628,-40.95906 -2.60335,-2.60336 -17.38567,40.29193 -19.53851,56.69679 -1.38189,10.53013 -1.07436,11.62004 4.98986,17.68426 3.55438,3.55439 7.32179,6.46252 8.37202,6.46252 1.05022,0 3.11138,-17.94803 4.58035,-39.88451 z m 176.4029,-31.3226 c 13.59399,-6.22443 33.93526,-19.01549 33.93526,-21.33924 0,-0.83288 -6.99332,0.93475 -15.54071,3.92809 -17.12229,5.99625 -50.86974,9.0487 -63.43568,5.73774 -5.49008,-1.44657 -2.22918,-1.88855 13.93305,-1.88851 17.77858,7e-5 24.47539,-1.07201 42.5361,-6.80936 11.78951,-3.74519 25.535,-7.46347 30.54554,-8.26284 5.01054,-0.79937 9.11008,-2.11971 9.11008,-2.93409 0,-0.81437 -3.13494,-3.0409 -6.96653,-4.94782 l -6.96653,-3.46712 7.11561,-0.13719 c 6.12167,-0.11789 7.01995,-0.81077 6.43064,-4.96006 -0.57929,-4.07891 -4.48801,-6.12458 -25.33576,-13.25977 -21.65891,-7.41281 -27.12234,-8.45346 -45.01448,-8.57418 -11.20004,-0.0756 -23.06847,0.61751 -26.37431,1.54018 l -6.01064,1.67758 4.49642,-6.08172 c 4.13846,-5.59747 4.20769,-13.34996 0.11924,-13.34996 -2.26871,0 -43.89097,32.11612 -44.77661,34.55008 -0.40541,1.1141 4.36008,0.089 10.58995,-2.27829 14.74216,-5.60159 15.99695,-4.02817 2.31623,2.90437 -11.71354,5.93572 -14.05991,10.42169 -9.35394,17.88377 4.36983,6.92907 27.16444,23.65151 42.19932,30.95796 15.7266,7.64262 28.34131,7.401 46.44775,-0.88962 z m -240.43875,-2.91323 c 11.61356,-5.40309 42.71524,-27.39406 43.03495,-30.42857 0.0902,-0.85617 0.49042,-3.26698 0.88937,-5.35737 0.50294,-2.63529 -1.91148,-5.1459 -7.87415,-8.18783 -10.29973,-5.25454 -9.43126,-7.68313 1.46191,-4.08807 4.28431,1.41395 8.18341,2.17708 8.66466,1.69583 1.4132,-1.4132 -33.23387,-23.13129 -36.90156,-23.13129 -2.34175,0 -2.99178,1.34896 -2.168,4.49912 1.00001,3.82401 0.47464,4.27944 -3.5012,3.03509 -23.5464,-7.36946 -44.36827,-5.9645 -76.88607,5.18787 -25.11395,8.61313 -25.32306,8.72239 -25.32306,13.22982 0,3.13052 1.59191,4.07829 6.96652,4.14761 l 6.96653,0.0898 -7.27867,3.87783 c -8.10495,4.31803 -7.34686,5.43321 5.13512,7.55395 4.71581,0.80123 16.05375,3.90224 25.19543,6.89111 9.14169,2.98888 21.19914,6.28465 26.79434,7.32392 l 10.17309,1.88961 -11.7895,-0.81813 c -6.48423,-0.45 -19.31006,-3.22184 -28.50183,-6.15968 -19.79973,-6.32831 -18.94548,-3.3181 2.50115,8.81362 30.41886,17.20705 42.634,19.15075 62.44097,9.93575 z"
       id="path4321"
       inkscape:connector-curvature="0" />
    <path
       style="fill:url(#linearGradient4341);fill-opacity:1;fill-rule:nonzero;stroke:none;stroke-width:10;stroke-linecap:round;stroke-linejoin:miter;stroke-miterlimit:4;stroke-dasharray:none;stroke-opacity:1"
       d="m 196.82052,1043.8134 c 3.79546,-31.9423 5.76417,-74.05846 5.29501,-113.27501 l -0.51106,-42.71938 17.99412,-6.04631 c 9.89677,-3.32546 19.35764,-6.0463 21.02416,-6.0463 2.50019,0 2.929,5.52883 2.45224,31.61731 -0.87343,47.79362 -0.88458,47.69392 5.33223,47.69392 7.64693,0 8.3037,-6.67052 7.03246,-71.42596 -0.9387,-47.81687 -1.9265,-60.71135 -6.67978,-87.19651 -3.068,-17.09479 -5.58633,-32.28326 -5.59629,-33.75216 -0.0101,-1.46891 5.67386,1.90718 12.63073,7.50241 40.03984,32.20302 79.26792,45.6278 132.85723,45.46689 40.12804,-0.12049 67.05234,-6.59724 93.41323,-22.47095 6.88428,-4.14549 12.77526,-7.27885 13.09109,-6.96302 0.31583,0.31583 -0.50371,5.39646 -1.82125,11.29029 -1.44575,6.46748 -2.43789,35.21784 -2.50248,72.51618 -0.10246,59.19051 0.0722,61.93121 4.13863,64.90425 2.3351,1.70727 5.71118,2.81503 7.50242,2.46171 3.80486,-0.75052 4.00693,-7.03609 1.48172,-46.09034 l -1.69696,-26.24515 30.15233,19.56735 30.15236,19.56735 -1.33878,36.68745 c -1.85382,50.80175 -1.54918,49.74519 -17.40682,60.36938 -18.70663,12.5329 -42.78875,21.4561 -88.89476,32.9382 -22.04946,5.4912 -40.7787,10.6727 -41.62054,11.5146 -2.34225,2.3422 58.04369,1.8193 83.09104,-0.7196 19.5783,-1.9844 36.23004,-5.0678 53.07126,-9.8269 4.97691,-1.4064 5.10921,-1.1496 3.93144,7.6314 -0.67035,4.9977 -1.60438,9.4724 -2.07562,9.9436 -0.47126,0.4713 -80.76539,1.5157 -178.43142,2.321 l -177.57459,1.4643 1.50665,-12.68 z m 228.80852,-92.52697 c 31.05299,-32.91848 40.59314,-54.80276 52.09561,-119.50274 1.88636,-10.61056 3.91349,-21.46227 4.50475,-24.11491 0.7018,-3.14857 0.0716,-4.82298 -1.81535,-4.82298 -1.5897,0 -16.80251,5.17135 -33.80624,11.49188 -29.29446,10.88919 -32.56567,11.62503 -62.37293,14.03046 l -31.45707,2.53856 -33.8122,-16.09975 c -18.5967,-8.85487 -34.22143,-15.69051 -34.72161,-15.19034 -0.50018,0.50019 4.39704,5.75924 10.88272,11.68678 13.59969,12.42935 33.761,36.63152 38.84644,46.6323 2.30039,4.52382 3.48839,12.32382 3.48839,22.90358 0,8.82393 1.02203,18.75894 2.27117,22.07781 2.82768,7.51292 15.04792,20.38675 27.73849,29.22208 12.32118,8.57817 45.38737,27.17425 48.33066,27.18067 1.23442,0.003 5.65664,-3.61234 9.82717,-8.0334 z"
       id="path4323"
       inkscape:connector-curvature="0" />
    <path
       style="fill:#000000;fill-opacity:1;fill-rule:evenodd;stroke:none;stroke-width:1px;stroke-linecap:butt;stroke-linejoin:miter;stroke-opacity:1"
       d="m 270.08691,773.7011 c -17.86289,-12.40983 -35.72578,-8.28351 -53.58867,19.29193 l -2.14355,-60.01932 z"
       id="path4325"
       inkscape:connector-curvature="0"
       sodipodi:nodetypes="cccc" />
    <path
       style="fill:#ff0000;fill-rule:evenodd;stroke:none;stroke-width:1px;stroke-linecap:butt;stroke-linejoin:miter;stroke-opacity:1"
       d="m 422.27874,458.59971 c 0,0 42.91857,30.69076 53.58868,53.58867 13.93502,29.90436 9.5694,65.62642 8.57419,98.60316 -0.5883,19.49361 -6.79436,38.45467 -8.57419,57.87577 -3.65397,39.8713 -4.2871,120.03862 -4.2871,120.03862 l 23.57902,-15.00483 c 0,0 -9.30772,-52.67114 -10.71773,-79.31123 -1.32232,-24.98328 0.86188,-50.03874 2.14354,-75.02414 1.98202,-38.63875 -6.3082,-80.03885 8.57419,-115.75154 8.37719,-20.10242 42.87094,-49.30158 42.87094,-49.30158 -47.77889,18.50554 -89.13531,25.08364 -115.75154,4.2871 z"
       id="path4343"
       inkscape:connector-curvature="0"
       sodipodi:nodetypes="csssccssscc" />
    <path
       style="fill:#ff0000;fill-rule:evenodd;stroke:none;stroke-width:1px;stroke-linecap:butt;stroke-linejoin:miter;stroke-opacity:1;fill-opacity:1"
       d="m 438.07037,806.58766 -9.10276,21.61906 -3.41354,67.13286 3.41354,37.54889 2.27569,53.47872 -5.68923,43.23811 -21.61906,35.2732 53.47872,0 -2.27569,-20.4812 3.41354,-13.6542 -11.37845,-39.82453 -11.37845,-73.95993 -2.27569,-52.34088 17.06767,-69.40855 z"
       id="path4345"
       inkscape:connector-curvature="0" />
    <path
       style="fill:#ff0000;fill-opacity:1;fill-rule:nonzero;stroke:none;stroke-width:10;stroke-linecap:round;stroke-linejoin:miter;stroke-miterlimit:4;stroke-dasharray:none;stroke-opacity:1"
       d="m 439.06304,456.47876 c -8.84162,-3.66734 -10.62985,-6.27366 -5.70092,-8.30903 1.56776,-0.64739 6.52756,-2.75183 11.02179,-4.67652 l 8.17132,-3.49943 0,10.13346 c 0,11.17855 -0.86869,11.58749 -13.49219,6.35152 z"
       id="path4347"
       inkscape:connector-curvature="0" />
    <path
       style="fill:#ff0000;fill-opacity:1;fill-rule:nonzero;stroke:none;stroke-width:10;stroke-linecap:round;stroke-linejoin:miter;stroke-miterlimit:4;stroke-dasharray:none;stroke-opacity:1"
       d="m 496.15594,451.13923 c 1.1622,-7.91855 1.41845,-7.9765 11.50254,-2.60098 l 7.59557,4.04897 -9.00032,2.69656 c -11.75347,3.52142 -11.25306,3.72681 -10.09779,-4.14455 z"
       id="path4349"
       inkscape:connector-curvature="0" />
    <ellipse
       style="fill:#1a1a1a;fill-opacity:1;fill-rule:nonzero;stroke:none;stroke-width:10;stroke-linecap:round;stroke-linejoin:miter;stroke-miterlimit:4;stroke-dasharray:none;stroke-opacity:1"
       id="path4359"
       cx="583.77448"
       cy="160.7379"
       rx="148.22398"
       ry="136.82214" />
    <ellipse
       style="fill:#ffffff;fill-opacity:1;fill-rule:nonzero;stroke:none;stroke-width:10;stroke-linecap:round;stroke-linejoin:miter;stroke-miterlimit:4;stroke-dasharray:none;stroke-opacity:1"
       id="path4361"
       cx="579.21375"
       cy="143.63512"
       rx="139.10252"
       ry="133.40158" />
    <text
       xml:space="preserve"
       style="font-style:normal;font-weight:normal;font-size:40px;line-height:125%;font-family:sans-serif;letter-spacing:0px;word-spacing:0px;fill:#000000;fill-opacity:1;stroke:none;stroke-width:1px;stroke-linecap:butt;stroke-linejoin:miter;stroke-opacity:1"
       x="478.8775"
       y="215.46677"
       id="text4365"
       sodipodi:linespacing="125%"><tspan
         sodipodi:role="line"
         id="tspan4367"
         x="478.8775"
         y="215.46677"
         style="font-size:180px"></tspan></text>
    <text
       xml:space="preserve"
       style="font-style:normal;font-weight:normal;font-size:40px;line-height:125%;font-family:sans-serif;letter-spacing:0px;word-spacing:0px;fill:#ffffff;fill-opacity:1;stroke:none;stroke-width:1px;stroke-linecap:butt;stroke-linejoin:miter;stroke-opacity:1"
       x="41.532547"
       y="131.16794"
       id="text4369"
       sodipodi:linespacing="125%"><tspan
         sodipodi:role="line"
         id="tspan4371"
         x="41.532547"
         y="131.16794"
         style="font-size:90px"></tspan><tspan
         sodipodi:role="line"
         x="41.532547"
         y="243.66794"
         id="tspan4373"
         style="font-size:90px"></tspan><tspan
         sodipodi:role="line"
         x="41.532547"
         y="356.16794"
         id="tspan4375"
         style="font-size:90px"></tspan><tspan
         sodipodi:role="line"
         x="41.532547"
         y="468.66794"
         id="tspan4377"
         style="font-size:90px"></tspan><tspan
         sodipodi:role="line"
         x="41.532547"
         y="581.16797"
         id="tspan4379"
         style="font-size:90px"></tspan><tspan
         sodipodi:role="line"
         x="41.532547"
         y="693.66797"
         id="tspan4381"
         style="font-size:90px"></tspan><tspan
         sodipodi:role="line"
         x="41.532547"
         y="806.16797"
         id="tspan4383"
         style="font-size:90px"></tspan><tspan
         sodipodi:role="line"
         x="41.532547"
         y="918.66797"
         id="tspan4385"
         style="font-size:90px"></tspan><tspan
         sodipodi:role="line"
         x="41.532547"
         y="1031.168"
         id="tspan4387"
         style="font-size:90px"></tspan></text>
  </g>
</svg>
