<?xml version="1.0" encoding="UTF-8" standalone="no"?>
<!-- Created with Inkscape (http://www.inkscape.org/) -->

<svg
   xmlns:dc="http://purl.org/dc/elements/1.1/"
   xmlns:cc="http://creativecommons.org/ns#"
   xmlns:rdf="http://www.w3.org/1999/02/22-rdf-syntax-ns#"
   xmlns:svg="http://www.w3.org/2000/svg"
   xmlns="http://www.w3.org/2000/svg"
   xmlns:sodipodi="http://sodipodi.sourceforge.net/DTD/sodipodi-0.dtd"
   xmlns:inkscape="http://www.inkscape.org/namespaces/inkscape"
   width="210mm"
   height="297mm"
   viewBox="0 0 744.09448819 1052.3622047"
   id="svg4519"
   version="1.1"
   inkscape:version="0.91 r13725"
   sodipodi:docname="wanwan.svg">
  <defs
     id="defs4521" />
  <sodipodi:namedview
     id="base"
     pagecolor="#ffffff"
     bordercolor="#666666"
     borderopacity="1.0"
     inkscape:pageopacity="0.0"
     inkscape:pageshadow="2"
     inkscape:zoom="0.34"
     inkscape:cx="362.93733"
     inkscape:cy="600.47272"
     inkscape:document-units="px"
     inkscape:current-layer="layer1"
     showgrid="false"
     inkscape:window-width="1237"
     inkscape:window-height="755"
     inkscape:window-x="66"
     inkscape:window-y="0"
     inkscape:window-maximized="0" />
  <metadata
     id="metadata4524">
    <rdf:RDF>
      <cc:Work
         rdf:about="">
        <dc:format>image/svg+xml</dc:format>
        <dc:type
           rdf:resource="http://purl.org/dc/dcmitype/StillImage" />
        <dc:title></dc:title>
      </cc:Work>
    </rdf:RDF>
  </metadata>
  <g
     inkscape:label="Layer 1"
     inkscape:groupmode="layer"
     id="layer1">
    <rect
       style="fill:#ccffff;stroke:none;stroke-width:10;stroke-linecap:round;stroke-linejoin:round;stroke-miterlimit:4;stroke-dasharray:none;stroke-opacity:1;fill-opacity:1"
       id="rect5192"
       width="745.47803"
       height="728.80591"
       x="1.1908594"
       y="-0.35750708" />
    <path
       style="fill:#a8ff00;stroke:none;stroke-width:10;stroke-linecap:round;stroke-linejoin:round;stroke-miterlimit:4;stroke-dasharray:none;stroke-opacity:1;fill-opacity:1"
       d="M 9.7037139e-7,717.73071 C 247.6303,679.6363 497.05506,682.81438 747.85974,717.73071 l 0,338.20409 -747.85973902962859,0 z"
       id="rect5190"
       inkscape:connector-curvature="0"
       sodipodi:nodetypes="ccccc" />
    <g
       id="g5166"
       transform="translate(55.970392,161.95688)">
      <path
         sodipodi:nodetypes="csscc"
         inkscape:connector-curvature="0"
         id="path5075"
         d="m 436.61972,549.5453 c 0,0 -17.65799,50.97438 -46.47887,64.78874 -11.37578,5.45262 17.62402,35.45901 26.76056,26.76056 25.67264,-24.44167 73.23944,-77.46479 73.23944,-77.46479 z"
         style="fill:#e9c6af;fill-rule:evenodd;stroke:#000000;stroke-width:10;stroke-linecap:butt;stroke-linejoin:miter;stroke-miterlimit:4;stroke-dasharray:none;stroke-opacity:1" />
      <path
         sodipodi:nodetypes="cssccc"
         inkscape:connector-curvature="0"
         id="path5069"
         d="m 201.85163,529.95119 c 0,0 -32.78761,56.89079 -65.97712,79.50779 -10.3304,7.03966 19.15298,22.69203 31.44804,20.43251 25.89513,-4.75888 46.60595,-63.77091 46.60595,-63.77091 l 0,0 z"
         style="fill:#e9c6af;fill-rule:evenodd;stroke:#000000;stroke-width:10;stroke-linecap:butt;stroke-linejoin:miter;stroke-miterlimit:4;stroke-dasharray:none;stroke-opacity:1" />
      <path
         sodipodi:nodetypes="ssssssssssssss"
         inkscape:connector-curvature="0"
         id="path4527"
         d="m 97.183099,452.3622 c -9.142966,16.64347 -14.173368,36.65797 0,49.29578 20.336091,18.13286 68.125491,-9.3738 88.732391,8.4507 37.88892,32.77305 8.4507,140.84507 8.4507,140.84507 -14.05493,5.32767 46.5079,18.43166 57.74649,8.45071 36.29432,-32.23285 -25.86529,-130.00406 16.9014,-107.04226 56.59275,30.38512 126.13501,5.08545 176.05635,14.08451 32.92875,5.93589 -26.05032,97.39963 2.8169,102.81691 18.46292,3.46478 61.87801,5.91073 59.15492,-12.67606 C 492.84899,559.70968 536.00829,513.51203 480.28169,460.8129 429.24247,412.54651 316.0455,444.35017 250.70423,418.55939 c -22.28865,-8.79753 -38.4921,-38.58643 -61.97183,-33.80282 -21.34718,4.34914 -35.37185,-1.26659 -51.86842,12.96297 -19.12161,16.49385 -27.52245,32.50998 -39.680881,54.64266 z"
         style="fill:#e9c6af;fill-rule:evenodd;stroke:#000000;stroke-width:10;stroke-linecap:butt;stroke-linejoin:miter;stroke-miterlimit:4;stroke-dasharray:none;stroke-opacity:1" />
      <path
         inkscape:connector-curvature="0"
         id="path5079"
         d="m 152.79306,401.08178 c -5.32657,-107.47177 40.05258,-63.24953 55.38749,-1.90991"
         style="fill:#e9c6af;fill-rule:evenodd;stroke:#000000;stroke-width:10;stroke-linecap:butt;stroke-linejoin:miter;stroke-miterlimit:4;stroke-dasharray:none;stroke-opacity:1" />
      <path
         inkscape:connector-curvature="0"
         id="path5092"
         d="M 507.14286,496.23976 C 632.37409,414.4421 360.41363,332.19092 383.67347,471.74996 c 7.69519,46.17117 124.92968,14.48221 92.85714,-12.2449"
         style="fill:#e9c6af;fill-rule:evenodd;stroke:#000000;stroke-width:10;stroke-linecap:butt;stroke-linejoin:miter;stroke-miterlimit:4;stroke-dasharray:none;stroke-opacity:1" />
      <ellipse
         ry="7.1428571"
         rx="12.755102"
         cy="473.7908"
         cx="99.489792"
         id="path5094"
         style="fill:#000000;stroke:none;stroke-width:10;stroke-linecap:round;stroke-linejoin:round;stroke-miterlimit:4;stroke-dasharray:none;stroke-opacity:1" />
      <path
         inkscape:connector-curvature="0"
         id="path5098"
         d="m 93.877552,495.21935 c 19.953508,0.54889 47.450988,3.04519 50.000008,-17.34694"
         style="fill:none;fill-rule:evenodd;stroke:#000000;stroke-width:10;stroke-linecap:butt;stroke-linejoin:miter;stroke-miterlimit:4;stroke-dasharray:none;stroke-opacity:1" />
      <ellipse
         ry="9.6938772"
         rx="7.6530614"
         cy="439.60709"
         cx="138.2653"
         id="path5100"
         style="fill:#000000;stroke:none;stroke-width:10;stroke-linecap:round;stroke-linejoin:round;stroke-miterlimit:4;stroke-dasharray:none;stroke-opacity:1" />
      <path
         inkscape:connector-curvature="0"
         id="path5132"
         d="m 117.34694,418.68874 c 96.83992,-36.26331 90.12777,51.9911 101.02041,117.34693 4.93483,29.60899 34.90768,72.13607 48.97959,91.83674"
         style="fill:none;fill-rule:evenodd;stroke:none;stroke-width:10;stroke-linecap:butt;stroke-linejoin:miter;stroke-miterlimit:4;stroke-dasharray:none;stroke-opacity:1" />
      <path
         inkscape:connector-curvature="0"
         id="path5142"
         d="m 226.42209,657.00377 c -8.66212,-0.75657 -22.52351,-3.54877 -24.84019,-5.00374 -1.1423,-0.71742 -0.93012,-2.9832 1.21615,-12.98684 6.9998,-32.62557 9.60737,-69.14723 6.41977,-89.91515 -3.03162,-19.75167 -8.98038,-33.16379 -18.64455,-42.03617 -7.8264,-7.18517 -13.27344,-8.58876 -30.7808,-7.93155 -7.68334,0.28842 -19.9391,1.28993 -27.23502,2.22556 -8.68754,1.11409 -15.20206,1.43299 -18.87755,0.92407 l -5.61225,-0.77708 9.71945,-0.75259 c 11.43794,-0.88566 19.99305,-3.77073 24.81998,-8.37013 3.69847,-3.52414 7.68893,-12.48686 6.17852,-13.87718 -0.50712,-0.46679 -3.10315,-1.07784 -5.76897,-1.3579 -4.03462,-0.42386 -4.84694,-0.22623 -4.84694,1.17923 0,2.77964 -2.93238,6.11338 -7.46539,8.48717 -3.69644,1.93571 -6.30555,2.29151 -19.44459,2.65161 -16.584828,0.45454 -16.925013,0.34566 -16.94909,-5.42483 -0.01276,-3.05838 -0.0071,-3.06123 6.0334,-3.06123 14.85761,0 16.3572,-12.88055 1.69203,-14.53352 -4.240565,-0.47798 -4.668209,-0.75884 -4.101836,-2.69392 0.768837,-2.62683 13.995546,-26.44836 19.164206,-34.51505 3.59633,-5.61278 4.01858,-5.91465 11.6362,-8.31892 12.21675,-3.85584 19.52352,-4.97293 29.97678,-4.58296 8.40039,0.31338 10.47341,0.78204 16.42125,3.71248 18.74148,9.23374 26.45322,28.82562 33.42276,84.91148 3.40043,27.36419 5.0676,36.73788 8.20059,46.10784 5.34892,15.99719 18.67637,40.56229 34.43431,63.46912 l 7.64106,11.10758 -0.67434,6.58188 c -1.34097,13.08865 -7.03568,23.22918 -13.62923,24.26946 -7.25925,1.14531 -9.97002,1.22186 -18.10571,0.51128 z M 142.33975,448.54661 c 4.05392,-3.1125 5.16991,-9.78321 2.50034,-14.94559 -2.55837,-4.94734 -7.97751,-5.64311 -11.84967,-1.52138 -1.938,2.0629 -2.47379,3.7396 -2.47379,7.74141 0,4.33176 0.43517,5.4825 2.86303,7.57085 3.11531,2.67968 6.41929,3.10547 8.96009,1.15471 z"
         style="fill:#f9f9f9;stroke:none;stroke-width:10.20408154;stroke-linecap:round;stroke-linejoin:round;stroke-miterlimit:4;stroke-dasharray:none;stroke-opacity:1" />
      <path
         inkscape:connector-curvature="0"
         id="path5144"
         d="m 303.06122,559.50506 c 30.70998,7.03621 178.57143,-76.38195 178.57143,-7.14286 0,43.60757 -12.74435,50.71659 -39.79592,81.63266"
         style="fill:none;fill-rule:evenodd;stroke:none;stroke-width:1px;stroke-linecap:butt;stroke-linejoin:miter;stroke-opacity:1" />
      <path
         inkscape:connector-curvature="0"
         id="path5146"
         d="m 454.93452,614.65049 c 7.55287,-29.76391 7.47845,-42.9885 -0.28075,-49.89089 -6.05463,-5.38604 -31.66003,-6.931 -71.26054,-4.29967 -25.62889,1.70296 -54.91032,2.00292 -64.61129,0.66189 -3.08674,-0.4267 -4.69388,-0.84466 -3.57143,-0.9288 4.72035,-0.35384 23.20683,-5.67118 49.4952,-14.2365 49.19911,-16.03014 65.13884,-19.80686 83.66806,-19.82407 17.13203,-0.0159 24.88928,3.43711 29.67701,13.21027 2.14761,4.38388 2.38518,6.1885 2.25705,17.1445 -0.25912,22.15577 -4.73366,36.03088 -16.28885,50.51021 -3.35913,4.20918 -6.9521,8.34184 -7.98439,9.18367 -1.76537,1.43967 -1.83073,1.34873 -1.10007,-1.53061 z"
         style="fill:#f9f9f9;stroke:none;stroke-width:10.20408154;stroke-linecap:round;stroke-linejoin:round;stroke-miterlimit:4;stroke-dasharray:none;stroke-opacity:1" />
      <path
         inkscape:connector-curvature="0"
         id="path5154"
         d="m 450.07095,573.76327 c -9.82033,1.40595 -17.64592,7.29334 -27.52112,8.39058"
         style="fill:none;fill-rule:evenodd;stroke:none;stroke-width:1px;stroke-linecap:butt;stroke-linejoin:miter;stroke-opacity:1" />
      <path
         inkscape:connector-curvature="0"
         id="path5156"
         d="m 428.42472,580.01641 c 0.0594,-0.13394 1.2163,-2.41024 2.57095,-5.05844 l 2.46302,-4.81491 2.23571,0.22486 c 6.59081,0.66287 11.28677,1.76404 11.92471,2.79626 0.12256,0.1983 -0.52476,0.51068 -1.5509,0.74843 -0.96869,0.22443 -4.32877,1.39015 -7.46685,2.59047 -7.13112,2.72768 -10.3157,3.82711 -10.17664,3.51333 z"
         style="fill:#ffffff;stroke:none;stroke-width:3.35623384;stroke-linecap:round;stroke-linejoin:round;stroke-miterlimit:4;stroke-dasharray:none;stroke-opacity:1" />
      <path
         inkscape:connector-curvature="0"
         id="path5158"
         d="m 203.12659,578.74041 c -10.20059,23.44719 -46.39216,40.9699 -71.45156,34.70504"
         style="fill:none;fill-rule:evenodd;stroke:none;stroke-width:1px;stroke-linecap:butt;stroke-linejoin:miter;stroke-opacity:1" />
      <path
         inkscape:connector-curvature="0"
         id="path5160"
         d="m 141.15662,613.30952 c 0,-0.4196 2.22923,-2.46293 4.95384,-4.54075 11.17144,-8.51945 30.58328,-30.79145 44.66942,-51.25105 l 7.02762,-10.20737 0.68989,4.59332 c 0.37944,2.52632 0.72394,10.80217 0.76556,18.39079 l 0.0757,13.79747 -4.68391,5.35441 c -8.5775,9.80538 -22.15607,18.09178 -35.31946,21.55391 -8.43223,2.21777 -18.17862,3.45588 -18.17862,2.30927 z"
         style="fill:#ffffff;stroke:none;stroke-width:10;stroke-linecap:round;stroke-linejoin:round;stroke-miterlimit:4;stroke-dasharray:none;stroke-opacity:1" />
      <path
         inkscape:connector-curvature="0"
         id="path5162"
         d="m 531.31868,475.98858 c -0.63848,-15.30248 -18.63279,-25.77565 -28.57143,-35.71429 -6.96006,-6.96006 -15.87579,-14.54587 -25.82417,-17.03296 -105.86784,-26.46696 -36.91219,99.76117 0,35.16483"
         style="fill:none;fill-rule:evenodd;stroke:none;stroke-width:1px;stroke-linecap:butt;stroke-linejoin:miter;stroke-opacity:1" />
      <path
         inkscape:connector-curvature="0"
         id="path5164"
         d="m 417.22304,489.66357 c -14.99726,-1.46469 -25.17563,-7.57466 -27.675,-16.613 -2.05299,-7.42409 -2.55703,-19.36802 -1.17653,-27.87963 1.67296,-10.31489 5.68334,-18.69385 12.22401,-25.53989 11.27349,-11.79983 27.78784,-17.65472 49.86928,-17.68031 38.15406,-0.0442 76.23426,19.08965 83.25951,41.83479 1.27421,4.1254 1.40567,10.08377 0.31304,14.18751 -0.91012,3.4182 -3.39334,8.97729 -4.01013,8.97729 -0.24389,0 -1.0481,-1.13982 -1.78715,-2.53294 -1.75794,-3.31373 -7.59103,-9.51699 -14.82296,-15.76362 -3.1952,-2.75987 -8.15836,-7.22995 -11.02924,-9.93352 -6.47401,-6.0967 -12.79913,-10.84461 -17.80634,-13.3662 -10.78019,-5.42882 -34.98679,-8.1494 -46.10242,-5.18146 -11.7202,3.12937 -17.86044,9.89304 -18.40809,20.27712 -0.55968,10.61204 3.6798,20.47484 12.33508,28.69651 8.76561,8.32646 18.93433,10.71556 28.3368,6.65761 3.37138,-1.45504 8.78138,-5.68474 10.94591,-8.55784 1.0191,-1.35272 2.02041,-2.46712 2.22512,-2.47647 0.77763,-0.0355 2.64977,2.93565 2.64977,4.20527 0,3.57806 -4.18038,7.62904 -11.9973,11.62596 -13.07972,6.68785 -32.87035,10.47632 -47.34336,9.06282 z"
         style="fill:#ffffff;stroke:none;stroke-width:5.49450541;stroke-linecap:round;stroke-linejoin:round;stroke-miterlimit:4;stroke-dasharray:none;stroke-opacity:1" />
    </g>
    <g
       id="g5209"
       style="stroke:none"
       transform="translate(-43.589744,48.717949)">
      <ellipse
         ry="51.282051"
         rx="69.230766"
         cy="203.64426"
         cx="200"
         id="path5201"
         style="fill:#ffffff;fill-opacity:1;stroke:none;stroke-width:1;stroke-linecap:round;stroke-linejoin:round;stroke-miterlimit:4;stroke-dasharray:none;stroke-opacity:1" />
      <ellipse
         ry="32.051281"
         rx="79.487183"
         cy="225.43913"
         cx="148.71794"
         id="path5203"
         style="fill:#ffffff;fill-opacity:1;stroke:none;stroke-width:1;stroke-linecap:round;stroke-linejoin:round;stroke-miterlimit:4;stroke-dasharray:none;stroke-opacity:1" />
      <ellipse
         ry="20.512821"
         rx="48.717949"
         cy="247.23399"
         cx="210.25641"
         id="path5205"
         style="fill:#ffffff;fill-opacity:1;stroke:none;stroke-width:1;stroke-linecap:round;stroke-linejoin:round;stroke-miterlimit:4;stroke-dasharray:none;stroke-opacity:1" />
      <ellipse
         ry="35.897434"
         rx="88.46154"
         cy="221.59297"
         cx="267.94873"
         id="path5207"
         style="fill:#ffffff;fill-opacity:1;stroke:none;stroke-width:1;stroke-linecap:round;stroke-linejoin:round;stroke-miterlimit:4;stroke-dasharray:none;stroke-opacity:1" />
    </g>
    <g
       transform="translate(451.28205,-53.846154)"
       style="stroke:none"
       id="g5215">
      <ellipse
         style="fill:#ffffff;fill-opacity:1;stroke:none;stroke-width:1;stroke-linecap:round;stroke-linejoin:round;stroke-miterlimit:4;stroke-dasharray:none;stroke-opacity:1"
         id="ellipse5217"
         cx="200"
         cy="203.64426"
         rx="69.230766"
         ry="51.282051" />
      <ellipse
         style="fill:#ffffff;fill-opacity:1;stroke:none;stroke-width:1;stroke-linecap:round;stroke-linejoin:round;stroke-miterlimit:4;stroke-dasharray:none;stroke-opacity:1"
         id="ellipse5219"
         cx="148.71794"
         cy="225.43913"
         rx="79.487183"
         ry="32.051281" />
      <ellipse
         style="fill:#ffffff;fill-opacity:1;stroke:none;stroke-width:1;stroke-linecap:round;stroke-linejoin:round;stroke-miterlimit:4;stroke-dasharray:none;stroke-opacity:1"
         id="ellipse5221"
         cx="210.25641"
         cy="247.23399"
         rx="48.717949"
         ry="20.512821" />
      <ellipse
         style="fill:#ffffff;fill-opacity:1;stroke:none;stroke-width:1;stroke-linecap:round;stroke-linejoin:round;stroke-miterlimit:4;stroke-dasharray:none;stroke-opacity:1"
         id="ellipse5223"
         cx="267.94873"
         cy="221.59297"
         rx="88.46154"
         ry="35.897434" />
    </g>
    <g
       id="g5235"
       style="fill:#00ff00;stroke:#00f400;stroke-width:10;stroke-miterlimit:4;stroke-dasharray:none;stroke-opacity:1"
       transform="matrix(0.86214309,0,0,0.95726989,9.4082122,40.166357)">
      <path
         inkscape:connector-curvature="0"
         id="path5229"
         d="m 71.794872,886.97759 c 14.102564,44.87179 12.081298,43.35584 14.102564,44.87179"
         style="fill:#00ff00;fill-rule:evenodd;stroke:#00f400;stroke-width:10;stroke-linecap:butt;stroke-linejoin:miter;stroke-miterlimit:4;stroke-dasharray:none;stroke-opacity:1"
         sodipodi:nodetypes="cc" />
      <path
         inkscape:connector-curvature="0"
         id="path5231"
         d="m 91.025641,885.69554 c 0.505502,17.93008 1.943412,34.84739 -6.410256,44.87179"
         style="fill:#00ff00;fill-rule:evenodd;stroke:#00f400;stroke-width:10;stroke-linecap:butt;stroke-linejoin:miter;stroke-miterlimit:4;stroke-dasharray:none;stroke-opacity:1" />
      <path
         inkscape:connector-curvature="0"
         id="path5233"
         d="m 120.51282,885.69554 c -6.17715,18.95472 -28.417035,33.63 -34.615384,42.30769"
         style="fill:#00ff00;fill-rule:evenodd;stroke:#00f400;stroke-width:10;stroke-linecap:butt;stroke-linejoin:miter;stroke-miterlimit:4;stroke-dasharray:none;stroke-opacity:1" />
    </g>
    <g
       style="fill:#00ff00;stroke:#00f400;stroke-width:10;stroke-miterlimit:4;stroke-dasharray:none;stroke-opacity:1"
       id="g5240"
       transform="matrix(0.82551481,0,0,0.79983777,575.75038,92.403606)">
      <path
         sodipodi:nodetypes="cc"
         style="fill:#00ff00;fill-rule:evenodd;stroke:#00f400;stroke-width:10;stroke-linecap:butt;stroke-linejoin:miter;stroke-miterlimit:4;stroke-dasharray:none;stroke-opacity:1"
         d="m 71.794872,886.97759 c 14.102564,44.87179 12.081298,43.35584 14.102564,44.87179"
         id="path5242"
         inkscape:connector-curvature="0" />
      <path
         style="fill:#00ff00;fill-rule:evenodd;stroke:#00f400;stroke-width:10;stroke-linecap:butt;stroke-linejoin:miter;stroke-miterlimit:4;stroke-dasharray:none;stroke-opacity:1"
         d="m 91.025641,885.69554 c 0.505502,17.93008 1.943412,34.84739 -6.410256,44.87179"
         id="path5244"
         inkscape:connector-curvature="0" />
      <path
         style="fill:#00ff00;fill-rule:evenodd;stroke:#00f400;stroke-width:10;stroke-linecap:butt;stroke-linejoin:miter;stroke-miterlimit:4;stroke-dasharray:none;stroke-opacity:1"
         d="m 120.51282,885.69554 c -6.17715,18.95472 -28.417035,33.63 -34.615384,42.30769"
         id="path5246"
         inkscape:connector-curvature="0" />
    </g>
    <g
       transform="matrix(1.2635322,0,0,1.2734599,491.32914,-186.66839)"
       id="g5248"
       style="fill:#00ff00;stroke:#00f400;stroke-width:10;stroke-miterlimit:4;stroke-dasharray:none;stroke-opacity:1">
      <path
         inkscape:connector-curvature="0"
         id="path5250"
         d="m 71.794872,886.97759 c 14.102564,44.87179 12.081298,43.35584 14.102564,44.87179"
         style="fill:#00ff00;fill-rule:evenodd;stroke:#00f400;stroke-width:10;stroke-linecap:butt;stroke-linejoin:miter;stroke-miterlimit:4;stroke-dasharray:none;stroke-opacity:1"
         sodipodi:nodetypes="cc" />
      <path
         inkscape:connector-curvature="0"
         id="path5252"
         d="m 91.025641,885.69554 c 0.505502,17.93008 1.943412,34.84739 -6.410256,44.87179"
         style="fill:#00ff00;fill-rule:evenodd;stroke:#00f400;stroke-width:10;stroke-linecap:butt;stroke-linejoin:miter;stroke-miterlimit:4;stroke-dasharray:none;stroke-opacity:1" />
      <path
         inkscape:connector-curvature="0"
         id="path5254"
         d="m 120.51282,885.69554 c -6.17715,18.95472 -28.417035,33.63 -34.615384,42.30769"
         style="fill:#00ff00;fill-rule:evenodd;stroke:#00f400;stroke-width:10;stroke-linecap:butt;stroke-linejoin:miter;stroke-miterlimit:4;stroke-dasharray:none;stroke-opacity:1" />
    </g>
    <g
       style="fill:#00ff00;stroke:#00f400;stroke-width:10;stroke-miterlimit:4;stroke-dasharray:none;stroke-opacity:1"
       id="g5256"
       transform="matrix(0.49388722,0,0,0.5040421,76.224723,282.08984)">
      <path
         sodipodi:nodetypes="cc"
         style="fill:#00ff00;fill-rule:evenodd;stroke:#00f400;stroke-width:10;stroke-linecap:butt;stroke-linejoin:miter;stroke-miterlimit:4;stroke-dasharray:none;stroke-opacity:1"
         d="m 71.794872,886.97759 c 14.102564,44.87179 12.081298,43.35584 14.102564,44.87179"
         id="path5258"
         inkscape:connector-curvature="0" />
      <path
         style="fill:#00ff00;fill-rule:evenodd;stroke:#00f400;stroke-width:10;stroke-linecap:butt;stroke-linejoin:miter;stroke-miterlimit:4;stroke-dasharray:none;stroke-opacity:1"
         d="m 91.025641,885.69554 c 0.505502,17.93008 1.943412,34.84739 -6.410256,44.87179"
         id="path5260"
         inkscape:connector-curvature="0" />
      <path
         style="fill:#00ff00;fill-rule:evenodd;stroke:#00f400;stroke-width:10;stroke-linecap:butt;stroke-linejoin:miter;stroke-miterlimit:4;stroke-dasharray:none;stroke-opacity:1"
         d="m 120.51282,885.69554 c -6.17715,18.95472 -28.417035,33.63 -34.615384,42.30769"
         id="path5262"
         inkscape:connector-curvature="0" />
    </g>
    <text
       xml:space="preserve"
       style="font-style:normal;font-weight:normal;font-size:40px;line-height:125%;font-family:sans-serif;letter-spacing:0px;word-spacing:0px;fill:#000000;fill-opacity:1;stroke:none;stroke-width:1px;stroke-linecap:butt;stroke-linejoin:miter;stroke-opacity:1"
       x="220.58824"
       y="99.421028"
       id="text5264"
       sodipodi:linespacing="125%"><tspan
         sodipodi:role="line"
         id="tspan5266"
         x="220.58824"
         y="99.421028" /></text>
  </g>
</svg>
